<?xml version="1.0" standalone="no"?>
<!DOCTYPE svg PUBLIC "-//W3C//DTD SVG 20010904//EN"
 "http://www.w3.org/TR/2001/REC-SVG-20010904/DTD/svg10.dtd">
<svg version="1.0" xmlns="http://www.w3.org/2000/svg"
 width="158.000000pt" height="158.000000pt" viewBox="0 0 158.000000 158.000000"
 preserveAspectRatio="xMidYMid meet">

<g transform="translate(0.000000,158.000000) scale(0.100000,-0.100000)"
fill="#000000" stroke="none">
<path d="M758 1560 c-9 -6 -53 -15 -98 -22 -70 -10 -81 -14 -86 -34 -3 -12
-19 -28 -35 -34 -16 -7 -27 -15 -25 -18 3 -2 -3 -17 -13 -31 -9 -14 -25 -43
-35 -64 -10 -22 -26 -47 -35 -56 -23 -23 -17 -83 7 -74 24 10 9 -46 -28 -100
-16 -25 -30 -52 -30 -62 0 -20 -18 -55 -39 -75 -36 -33 -43 -65 -36 -151 5
-74 10 -90 42 -138 20 -29 44 -56 54 -58 10 -3 24 -18 31 -34 7 -16 16 -29 21
-29 4 0 12 -11 17 -25 5 -14 16 -25 25 -25 8 0 15 -9 15 -20 0 -11 6 -19 13
-17 34 6 3 -147 -47 -228 -22 -34 -25 -37 -26 -17 0 13 5 32 10 43 6 10 8 19
6 19 -9 0 -46 -82 -46 -101 0 -10 -8 -25 -17 -35 -10 -9 -27 -37 -38 -62 -19
-42 -20 -48 -5 -78 l15 -33 603 -1 603 0 -2 405 c0 223 -4 403 -8 401 -9 -6
-19 2 -55 41 -27 30 -29 37 -35 160 -7 110 -12 138 -35 188 -40 89 -49 95
-123 95 -50 0 -63 3 -63 15 0 9 -18 34 -40 56 -22 22 -40 46 -40 52 0 7 -15
25 -32 40 -69 59 -105 75 -205 92 -149 25 -167 26 -185 15z m-184 -1119 c-6
-6 -24 19 -24 34 1 6 7 1 15 -9 8 -11 12 -22 9 -25z"/>
<path d="M468 1443 c-9 -2 -40 -35 -69 -74 -29 -38 -57 -69 -61 -69 -4 0 -8
-6 -8 -13 0 -8 -9 -22 -19 -31 -11 -10 -23 -32 -27 -50 -3 -17 -10 -35 -14
-41 -20 -27 -40 -166 -26 -187 17 -29 21 -22 22 45 1 60 30 168 62 232 23 45
99 136 140 168 35 26 35 29 0 20z"/>
<path d="M282 880 c0 -14 2 -19 5 -12 2 6 2 18 0 25 -3 6 -5 1 -5 -13z"/>
<path d="M497 403 c-4 -3 -7 -16 -6 -27 0 -19 1 -19 10 3 10 24 8 36 -4 24z"/>
</g>
</svg>
