<?xml version="1.0" standalone="no"?>
<!DOCTYPE svg PUBLIC "-//W3C//DTD SVG 20010904//EN"
 "http://www.w3.org/TR/2001/REC-SVG-20010904/DTD/svg10.dtd">
<svg version="1.0" xmlns="http://www.w3.org/2000/svg"
 width="512.000000pt" height="512.000000pt" viewBox="0 0 512.000000 512.000000"
 preserveAspectRatio="xMidYMid meet">

<g transform="translate(0.000000,512.000000) scale(0.100000,-0.100000)"
fill="#7A6EAA" stroke="none">
<path d="M430 3022 c-189 -14 -361 -155 -411 -337 -18 -64 -18 -186 0 -250 42
-151 163 -273 320 -321 59 -18 193 -18 252 0 229 71 369 290 331 519 -29 172
-155 319 -317 369 -41 13 -133 24 -175 20z"/>
<path d="M2580 3019 c-110 -14 -198 -59 -278 -143 -168 -178 -168 -454 0 -632
93 -98 200 -145 333 -145 135 0 240 44 333 139 176 179 176 465 0 644 -105
107 -240 154 -388 137z"/>
<path d="M4620 3022 c-156 -11 -312 -116 -380 -255 -127 -262 7 -566 289 -653
59 -18 193 -18 252 0 157 48 278 170 320 321 8 28 14 84 14 125 0 132 -45 239
-138 331 -93 91 -228 141 -357 131z"/>
</g>
</svg>
