<svg xmlns="http://www.w3.org/2000/svg" viewBox="0 0 890 278" version="1.1"><defs><clipPath id="recharts1-clip"><rect x="0" y="5" height="238" width="890"/></clipPath></defs><defs><linearGradient id="gradient" x1="0" y1="0" x2="0" y2="1"><stop offset="5%" stop-color="#ED4B9E" stop-opacity="0.34"/><stop offset="100%" stop-color="#ED4B9E" stop-opacity="0"/></linearGradient></defs><g class="recharts-layer recharts-cartesian-axis recharts-xAxis xAxis"><g class="recharts-cartesian-axis-ticks"><g class="recharts-layer recharts-cartesian-axis-tick"><text orientation="bottom" width="890" height="30" type="category" x="37.083333333333336" y="251" stroke="none" fill="#666" class="recharts-text recharts-cartesian-axis-tick-value" text-anchor="middle"><tspan x="37.083333333333336" dy="0.71em">06:00 PM</tspan></text></g><g class="recharts-layer recharts-cartesian-axis-tick"><text orientation="bottom" width="890" height="30" type="category" x="148.33333333333334" y="251" stroke="none" fill="#666" class="recharts-text recharts-cartesian-axis-tick-value" text-anchor="middle"><tspan x="148.33333333333334" dy="0.71em">09:00 PM</tspan></text></g><g class="recharts-layer recharts-cartesian-axis-tick"><text orientation="bottom" width="890" height="30" type="category" x="222.5" y="251" stroke="none" fill="#666" class="recharts-text recharts-cartesian-axis-tick-value" text-anchor="middle"><tspan x="222.5" dy="0.71em">11:00 PM</tspan></text></g><g class="recharts-layer recharts-cartesian-axis-tick"><text orientation="bottom" width="890" height="30" type="category" x="296.6666666666667" y="251" stroke="none" fill="#666" class="recharts-text recharts-cartesian-axis-tick-value" text-anchor="middle"><tspan x="296.6666666666667" dy="0.71em">01:00 AM</tspan></text></g><g class="recharts-layer recharts-cartesian-axis-tick"><text orientation="bottom" width="890" height="30" type="category" x="407.9166666666667" y="251" stroke="none" fill="#666" class="recharts-text recharts-cartesian-axis-tick-value" text-anchor="middle"><tspan x="407.9166666666667" dy="0.71em">04:00 AM</tspan></text></g><g class="recharts-layer recharts-cartesian-axis-tick"><text orientation="bottom" width="890" height="30" type="category" x="519.1666666666667" y="251" stroke="none" fill="#666" class="recharts-text recharts-cartesian-axis-tick-value" text-anchor="middle"><tspan x="519.1666666666667" dy="0.71em">07:00 AM</tspan></text></g><g class="recharts-layer recharts-cartesian-axis-tick"><text orientation="bottom" width="890" height="30" type="category" x="630.4166666666667" y="251" stroke="none" fill="#666" class="recharts-text recharts-cartesian-axis-tick-value" text-anchor="middle"><tspan x="630.4166666666667" dy="0.71em">10:00 AM</tspan></text></g><g class="recharts-layer recharts-cartesian-axis-tick"><text orientation="bottom" width="890" height="30" type="category" x="704.5833333333334" y="251" stroke="none" fill="#666" class="recharts-text recharts-cartesian-axis-tick-value" text-anchor="middle"><tspan x="704.5833333333334" dy="0.71em">12:00 PM</tspan></text></g><g class="recharts-layer recharts-cartesian-axis-tick"><text orientation="bottom" width="890" height="30" type="category" x="778.75" y="251" stroke="none" fill="#666" class="recharts-text recharts-cartesian-axis-tick-value" text-anchor="middle"><tspan x="778.75" dy="0.71em">02:00 PM</tspan></text></g><g class="recharts-layer recharts-cartesian-axis-tick"><text orientation="bottom" width="890" height="30" type="category" x="858" y="251" stroke="none" fill="#666" class="recharts-text recharts-cartesian-axis-tick-value" text-anchor="middle"><tspan x="858" dy="0.71em">04:28 PM</tspan></text></g></g></g><g class="recharts-layer recharts-area"><g class="recharts-layer"><path fill="url(#gradient)" stroke-width="2" fill-opacity="0.6" points="[object Object],[object Object],[object Object],[object Object],[object Object],[object Object],[object Object],[object Object],[object Object],[object Object],[object Object],[object Object],[object Object],[object Object],[object Object],[object Object],[object Object],[object Object],[object Object],[object Object],[object Object],[object Object],[object Object],[object Object],[object Object]" width="890" height="238" type="linear" stroke="none" class="recharts-curve recharts-area-area" d="M0,14.897089118560476L37.083333333333336,66.01577200187496L74.16666666666667,95.95262192520707L111.25,110.69713214163357L148.33333333333334,124.34179660846497L185.41666666666669,138.45879719981295L222.5,142.2355325392871L259.58333333333337,147.9106923178634L296.6666666666667,92.37262582716745L333.75,83.72090153108101L370.83333333333337,68.99571271123843L407.9166666666667,67.0352429031117L445,52.892769898091L482.08333333333337,41.8509714892482L519.1666666666667,26.545514477603547L556.25,121.9505851736243L593.3333333333334,109.7661698217041L630.4166666666667,102.3968902414027L667.5,116.47487703777338L704.5833333333334,81.9829323897162L741.6666666666667,64.21445567086481L778.75,104.06093782789551L815.8333333333334,166.7834541159663L852.9166666666667,166.69975616638945L890,216.02666666666755L890,243L852.9166666666667,243L815.8333333333334,243L778.75,243L741.6666666666667,243L704.5833333333334,243L667.5,243L630.4166666666667,243L593.3333333333334,243L556.25,243L519.1666666666667,243L482.08333333333337,243L445,243L407.9166666666667,243L370.83333333333337,243L333.75,243L296.6666666666667,243L259.58333333333337,243L222.5,243L185.41666666666669,243L148.33333333333334,243L111.25,243L74.16666666666667,243L37.083333333333336,243L0,243Z"/><path type="linear" stroke="#ED4B9E " fill="none" stroke-width="2" fill-opacity="0.6" points="[object Object],[object Object],[object Object],[object Object],[object Object],[object Object],[object Object],[object Object],[object Object],[object Object],[object Object],[object Object],[object Object],[object Object],[object Object],[object Object],[object Object],[object Object],[object Object],[object Object],[object Object],[object Object],[object Object],[object Object],[object Object]" width="890" height="238" class="recharts-curve recharts-area-curve" d="M0,14.897089118560476L37.083333333333336,66.01577200187496L74.16666666666667,95.95262192520707L111.25,110.69713214163357L148.33333333333334,124.34179660846497L185.41666666666669,138.45879719981295L222.5,142.2355325392871L259.58333333333337,147.9106923178634L296.6666666666667,92.37262582716745L333.75,83.72090153108101L370.83333333333337,68.99571271123843L407.9166666666667,67.0352429031117L445,52.892769898091L482.08333333333337,41.8509714892482L519.1666666666667,26.545514477603547L556.25,121.9505851736243L593.3333333333334,109.7661698217041L630.4166666666667,102.3968902414027L667.5,116.47487703777338L704.5833333333334,81.9829323897162L741.6666666666667,64.21445567086481L778.75,104.06093782789551L815.8333333333334,166.7834541159663L852.9166666666667,166.69975616638945L890,216.02666666666755"/></g></g></svg>