<svg xmlns="http://www.w3.org/2000/svg" class="recharts-surface" viewBox="0 0 518 250" version="1.1"><defs><clipPath id="recharts12-clip"><rect x="0" y="5" height="210" width="443"/></clipPath></defs><defs><linearGradient id="gradient" x1="0" y1="0" x2="0" y2="1"><stop offset="5%" stop-color="#d7caec" stop-opacity="0.5"/><stop offset="100%" stop-color="#7645D9" stop-opacity="0"/></linearGradient></defs><g class="recharts-layer recharts-cartesian-axis recharts-xAxis xAxis"><g class="recharts-cartesian-axis-ticks"><g class="recharts-layer recharts-cartesian-axis-tick"><text orientation="bottom" width="443" height="30" type="category" x="21.004310344827587" y="223" stroke="none" fill="#666" class="recharts-text recharts-cartesian-axis-tick-value" text-anchor="middle"><tspan x="21.004310344827587" dy="0.71em">05</tspan></text></g><g class="recharts-layer recharts-cartesian-axis-tick"><text orientation="bottom" width="443" height="30" type="category" x="47.737068965517246" y="223" stroke="none" fill="#666" class="recharts-text recharts-cartesian-axis-tick-value" text-anchor="middle"><tspan x="47.737068965517246" dy="0.71em">19</tspan></text></g><g class="recharts-layer recharts-cartesian-axis-tick"><text orientation="bottom" width="443" height="30" type="category" x="72.5603448275862" y="223" stroke="none" fill="#666" class="recharts-text recharts-cartesian-axis-tick-value" text-anchor="middle"><tspan x="72.5603448275862" dy="0.71em">01</tspan></text></g><g class="recharts-layer recharts-cartesian-axis-tick"><text orientation="bottom" width="443" height="30" type="category" x="97.38362068965517" y="223" stroke="none" fill="#666" class="recharts-text recharts-cartesian-axis-tick-value" text-anchor="middle"><tspan x="97.38362068965517" dy="0.71em">14</tspan></text></g><g class="recharts-layer recharts-cartesian-axis-tick"><text orientation="bottom" width="443" height="30" type="category" x="124.11637931034483" y="223" stroke="none" fill="#666" class="recharts-text recharts-cartesian-axis-tick-value" text-anchor="middle"><tspan x="124.11637931034483" dy="0.71em">28</tspan></text></g><g class="recharts-layer recharts-cartesian-axis-tick"><text orientation="bottom" width="443" height="30" type="category" x="148.9396551724138" y="223" stroke="none" fill="#666" class="recharts-text recharts-cartesian-axis-tick-value" text-anchor="middle"><tspan x="148.9396551724138" dy="0.71em">11</tspan></text></g><g class="recharts-layer recharts-cartesian-axis-tick"><text orientation="bottom" width="443" height="30" type="category" x="173.76293103448276" y="223" stroke="none" fill="#666" class="recharts-text recharts-cartesian-axis-tick-value" text-anchor="middle"><tspan x="173.76293103448276" dy="0.71em">24</tspan></text></g><g class="recharts-layer recharts-cartesian-axis-tick"><text orientation="bottom" width="443" height="30" type="category" x="202.4051724137931" y="223" stroke="none" fill="#666" class="recharts-text recharts-cartesian-axis-tick-value" text-anchor="middle"><tspan x="202.4051724137931" dy="0.71em">08</tspan></text></g><g class="recharts-layer recharts-cartesian-axis-tick"><text orientation="bottom" width="443" height="30" type="category" x="231.04741379310346" y="223" stroke="none" fill="#666" class="recharts-text recharts-cartesian-axis-tick-value" text-anchor="middle"><tspan x="231.04741379310346" dy="0.71em">23</tspan></text></g><g class="recharts-layer recharts-cartesian-axis-tick"><text orientation="bottom" width="443" height="30" type="category" x="259.6896551724138" y="223" stroke="none" fill="#666" class="recharts-text recharts-cartesian-axis-tick-value" text-anchor="middle"><tspan x="259.6896551724138" dy="0.71em">07</tspan></text></g><g class="recharts-layer recharts-cartesian-axis-tick"><text orientation="bottom" width="443" height="30" type="category" x="286.42241379310343" y="223" stroke="none" fill="#666" class="recharts-text recharts-cartesian-axis-tick-value" text-anchor="middle"><tspan x="286.42241379310343" dy="0.71em">21</tspan></text></g><g class="recharts-layer recharts-cartesian-axis-tick"><text orientation="bottom" width="443" height="30" type="category" x="313.15517241379314" y="223" stroke="none" fill="#666" class="recharts-text recharts-cartesian-axis-tick-value" text-anchor="middle"><tspan x="313.15517241379314" dy="0.71em">05</tspan></text></g><g class="recharts-layer recharts-cartesian-axis-tick"><text orientation="bottom" width="443" height="30" type="category" x="339.8879310344828" y="223" stroke="none" fill="#666" class="recharts-text recharts-cartesian-axis-tick-value" text-anchor="middle"><tspan x="339.8879310344828" dy="0.71em">19</tspan></text></g><g class="recharts-layer recharts-cartesian-axis-tick"><text orientation="bottom" width="443" height="30" type="category" x="364.71120689655174" y="223" stroke="none" fill="#666" class="recharts-text recharts-cartesian-axis-tick-value" text-anchor="middle"><tspan x="364.71120689655174" dy="0.71em">01</tspan></text></g><g class="recharts-layer recharts-cartesian-axis-tick"><text orientation="bottom" width="443" height="30" type="category" x="389.5344827586207" y="223" stroke="none" fill="#666" class="recharts-text recharts-cartesian-axis-tick-value" text-anchor="middle"><tspan x="389.5344827586207" dy="0.71em">14</tspan></text></g><g class="recharts-layer recharts-cartesian-axis-tick"><text orientation="bottom" width="443" height="30" type="category" x="416.26724137931035" y="223" stroke="none" fill="#666" class="recharts-text recharts-cartesian-axis-tick-value" text-anchor="middle"><tspan x="416.26724137931035" dy="0.71em">28</tspan></text></g><g class="recharts-layer recharts-cartesian-axis-tick"><text orientation="bottom" width="443" height="30" type="category" x="443" y="223" stroke="none" fill="#666" class="recharts-text recharts-cartesian-axis-tick-value" text-anchor="middle"><tspan x="443" dy="0.71em">12</tspan></text></g></g></g><g class="recharts-layer recharts-cartesian-axis recharts-yAxis yAxis"><g class="recharts-cartesian-axis-ticks"><g class="recharts-layer recharts-cartesian-axis-tick"><text font-size="12px" orientation="right" width="60" height="210" type="number" x="461" y="215" stroke="none" fill="#7A6EAA" class="recharts-text recharts-cartesian-axis-tick-value" text-anchor="start"><tspan x="461" dy="0.355em">$0.00</tspan></text></g><g class="recharts-layer recharts-cartesian-axis-tick"><text font-size="12px" orientation="right" width="60" height="210" type="number" x="461" y="188.05520734594097" stroke="none" fill="#7A6EAA" class="recharts-text recharts-cartesian-axis-tick-value" text-anchor="start"><tspan x="461" dy="0.355em">$1.00B</tspan></text></g><g class="recharts-layer recharts-cartesian-axis-tick"><text font-size="12px" orientation="right" width="60" height="210" type="number" x="461" y="161.1104146918819" stroke="none" fill="#7A6EAA" class="recharts-text recharts-cartesian-axis-tick-value" text-anchor="start"><tspan x="461" dy="0.355em">$2.00B</tspan></text></g><g class="recharts-layer recharts-cartesian-axis-tick"><text font-size="12px" orientation="right" width="60" height="210" type="number" x="461" y="134.16562203782283" stroke="none" fill="#7A6EAA" class="recharts-text recharts-cartesian-axis-tick-value" text-anchor="start"><tspan x="461" dy="0.355em">$3.00B</tspan></text></g><g class="recharts-layer recharts-cartesian-axis-tick"><text font-size="12px" orientation="right" width="60" height="210" type="number" x="461" y="107.22082938376379" stroke="none" fill="#7A6EAA" class="recharts-text recharts-cartesian-axis-tick-value" text-anchor="start"><tspan x="461" dy="0.355em">$4.00B</tspan></text></g><g class="recharts-layer recharts-cartesian-axis-tick"><text font-size="12px" orientation="right" width="60" height="210" type="number" x="461" y="80.27603672970473" stroke="none" fill="#7A6EAA" class="recharts-text recharts-cartesian-axis-tick-value" text-anchor="start"><tspan x="461" dy="0.355em">$5.00B</tspan></text></g><g class="recharts-layer recharts-cartesian-axis-tick"><text font-size="12px" orientation="right" width="60" height="210" type="number" x="461" y="53.33124407564569" stroke="none" fill="#7A6EAA" class="recharts-text recharts-cartesian-axis-tick-value" text-anchor="start"><tspan x="461" dy="0.355em">$6.00B</tspan></text></g><g class="recharts-layer recharts-cartesian-axis-tick"><text font-size="12px" orientation="right" width="60" height="210" type="number" x="461" y="26.386451421586628" stroke="none" fill="#7A6EAA" class="recharts-text recharts-cartesian-axis-tick-value" text-anchor="start"><tspan x="461" dy="0.355em">$7.00B</tspan></text></g></g></g><g class="recharts-layer recharts-area"><g class="recharts-layer"><defs><clipPath id="animationClipPath-recharts-area-14"><rect x="0" y="0" width="443" height="217"/></clipPath></defs><g class="recharts-layer" clip-path="url(#animationClipPath-recharts-area-14)"><g class="recharts-layer"><path fill="url(#gradient)" stroke-width="2" fill-opacity="0.6" points="[object Object],[object Object],[object Object],[object Object],[object Object],[object Object],[object Object],[object Object],[object Object],[object Object],[object Object],[object Object],[object Object],[object Object],[object Object],[object Object],[object Object],[object Object],[object Object],[object Object],[object Object],[object Object],[object Object],[object Object],[object Object],[object Object],[object Object],[object Object],[object Object],[object Object],[object Object],[object Object],[object Object],[object Object],[object Object],[object Object],[object Object],[object Object],[object Object],[object Object],[object Object],[object Object],[object Object],[object Object],[object Object],[object Object],[object Object],[object Object],[object Object],[object Object],[object Object],[object Object],[object Object],[object Object],[object Object],[object Object],[object Object],[object Object],[object Object],[object Object],[object Object],[object Object],[object Object],[object Object],[object Object],[object Object],[object Object],[object Object],[object Object],[object Object],[object Object],[object Object],[object Object],[object Object],[object Object],[object Object],[object Object],[object Object],[object Object],[object Object],[object Object],[object Object],[object Object],[object Object],[object Object],[object Object],[object Object],[object Object],[object Object],[object Object],[object Object],[object Object],[object Object],[object Object],[object Object],[object Object],[object Object],[object Object],[object Object],[object Object],[object Object],[object Object],[object Object],[object Object],[object Object],[object Object],[object Object],[object Object],[object Object],[object Object],[object Object],[object Object],[object Object],[object Object],[object Object],[object Object],[object Object],[object Object],[object Object],[object Object],[object Object],[object Object],[object Object],[object Object],[object Object],[object Object],[object Object],[object Object],[object Object],[object Object],[object Object],[object Object],[object Object],[object Object],[object Object],[object Object],[object Object],[object Object],[object Object],[object Object],[object Object],[object Object],[object Object],[object Object],[object Object],[object Object],[object Object],[object Object],[object Object],[object Object],[object Object],[object Object],[object Object],[object Object],[object Object],[object Object],[object Object],[object Object],[object Object],[object Object],[object Object],[object Object],[object Object],[object Object],[object Object],[object Object],[object Object],[object Object],[object Object],[object Object],[object Object],[object Object],[object Object],[object Object],[object Object],[object Object],[object Object],[object Object],[object Object],[object Object],[object Object],[object Object],[object Object],[object Object],[object Object],[object Object],[object Object],[object Object],[object Object],[object Object],[object Object],[object Object],[object Object],[object Object],[object Object],[object Object],[object Object],[object Object],[object Object],[object Object],[object Object],[object Object],[object Object],[object Object],[object Object],[object Object],[object Object],[object Object],[object Object],[object Object],[object Object],[object Object],[object Object],[object Object],[object Object],[object Object],[object Object],[object Object],[object Object],[object Object],[object Object],[object Object],[object Object],[object Object],[object Object],[object Object],[object Object],[object Object],[object Object],[object Object],[object Object],[object Object],[object Object]" width="443" height="210" type="monotone" stroke="none" class="recharts-curve recharts-area-area" d="M0,131.20846844431534C0.6364942528735632,120.78588420288737,1.2729885057471266,110.36329996145939,1.9094827586206897,101.61093006420528C2.545977011494253,92.85856016695116,3.182471264367816,85.8932890278085,3.8189655172413794,78.69424906079067C4.455459770114943,71.49520909377283,5.0919540229885065,60.94914485300065,5.728448275862069,58.41669026209821C6.364942528735632,55.88423567119577,7.001436781609196,57.15046296664699,7.637931034482759,54.61800837574455C8.274425287356323,52.08555378484211,8.910919540229886,43.17615657497821,9.547413793103448,39.21532361901582C10.183908045977011,35.25449066305343,10.820402298850576,33.36727148744045,11.456896551724139,30.853010639970215C12.093390804597702,28.338749792499986,12.729885057471265,25.874062606268136,13.366379310344827,24.129758534194437C14.00287356321839,22.385454462120737,14.639367816091955,22.882234425305633,15.275862068965518,20.38718620752802C15.91235632183908,17.892137989750413,16.548850574712645,5,17.185344827586206,5C17.82183908045977,5,18.458333333333332,22.34530479868017,19.094827586206897,22.34530479868017C19.73132183908046,22.34530479868017,20.367816091954023,8.771326238471628,21.004310344827587,8.771326238471628C21.640804597701152,8.771326238471628,22.277298850574713,13.247596698068715,22.913793103448278,14.61882915066475C23.550287356321842,15.990061603260784,24.186781609195403,16.998720954047833,24.823275862068968,16.998720954047833C25.45977011494253,16.998720954047833,26.096264367816094,13.758372218147523,26.732758620689655,13.390728003694555C27.36925287356322,13.023083789241587,28.00574712643678,12.839261682015103,28.642241379310345,12.839261682015103C29.27873563218391,12.839261682015103,29.91522988505747,23.6531895703308,30.551724137931036,23.6531895703308C31.188218390804597,23.6531895703308,31.82471264367816,14.945707679691203,32.46120689655172,14.945707679691203C33.09770114942528,14.945707679691203,33.73419540229885,30.905204137475277,34.37068965517241,36.00196346757609C35.007183908045974,41.0987227976769,35.64367816091954,45.52626366029608,36.2801724137931,45.52626366029608C36.916666666666664,45.52626366029608,37.55316091954023,31.559231945796224,38.189655172413794,31.559231945796224C38.826149425287355,31.559231945796224,39.46264367816092,40.057766965708,40.099137931034484,42.89199427111836C40.735632183908045,45.726221576528715,41.37212643678161,45.305378935477364,42.008620689655174,48.56459577825836C42.645114942528735,51.82381262103935,43.281609195402304,62.44729532780431,43.918103448275865,62.44729532780431C44.554597701149426,62.44729532780431,45.191091954022994,60.826606828409666,45.827586206896555,60.826606828409666C46.464080459770116,60.826606828409666,47.100574712643684,122.52730594419886,47.737068965517246,122.52730594419886C48.37356321839081,122.52730594419886,49.010057471264375,115.03024462321572,49.646551724137936,115.03024462321572C50.2830459770115,115.03024462321572,50.91954022988506,126.19721339175939,51.55603448275862,129.47096241939443C52.19252873563218,132.74471144702946,52.82902298850575,131.92473559145344,53.46551724137931,134.67273878902589C54.10201149425287,137.42074198659833,54.73850574712644,145.95898160482906,55.375,145.95898160482906C56.01149425287356,145.95898160482906,56.64798850574713,127.76402997699904,57.28448275862069,127.34808003792163C57.92097701149425,126.93213009884423,58.55747126436782,127.14010506838292,59.19396551724138,126.72415512930552C59.83045977011494,126.30820519022811,60.46695402298851,117.93813025112188,61.10344827586207,117.76464222788346C61.73994252873563,117.59115420464504,62.3764367816092,117.50441019302583,63.01293103448276,117.50441019302583C63.64942528735632,117.50441019302583,64.28591954022988,123.52751432188774,64.92241379310344,125.8118429148487C65.558908045977,128.0961715078097,66.19540229885058,131.2103817507916,66.83189655172414,131.2103817507916C67.4683908045977,131.2103817507916,68.10488505747126,128.70330313831977,68.74137931034483,126.4441859762462C69.37787356321839,124.18506881417262,70.01436781609196,119.27880468922366,70.65086206896552,117.65567877835018C71.28735632183908,116.03255286747671,71.92385057471265,116.38489934799307,72.5603448275862,115.22098991203998C73.19683908045977,114.05708047608688,73.83333333333334,112.67569840573537,74.4698275862069,110.67222216263157C75.10632183908046,108.66874591952778,75.74281609195403,103.20013245341724,76.37931034482759,103.20013245341724C77.01580459770115,103.20013245341724,77.65229885057472,108.43706205506008,78.28879310344828,108.78698047486633C78.92528735632185,109.13689889467257,79.5617816091954,109.31185810457569,80.19827586206897,109.31185810457569C80.83477011494253,109.31185810457569,81.47126436781609,107.8607244013062,82.10775862068965,107.8607244013062C82.74425287356321,107.8607244013062,83.38074712643679,112.15462626484575,84.01724137931035,112.18436788622485C84.65373563218391,112.21410950760395,85.29022988505747,112.22898031829351,85.92672413793103,112.22898031829351C86.5632183908046,112.22898031829351,87.19971264367817,105.18546336514618,87.83620689655173,105.18546336514618C88.47270114942529,105.18546336514618,89.10919540229885,107.10136851697729,89.74568965517241,107.10136851697729C90.38218390804597,107.10136851697729,91.01867816091955,105.96247142013847,91.65517241379311,105.78676580670594C92.29166666666667,105.61106019327342,92.92816091954023,105.69891299998967,93.5646551724138,105.52320738655715C94.20114942528735,105.34750177312462,94.83764367816093,102.23716942269968,95.47413793103449,101.22840539315108C96.11063218390805,100.21964136360248,96.74712643678161,99.47062320926551,97.38362068965517,99.47062320926551C98.02011494252874,99.47062320926551,98.65660919540231,99.5815520357055,99.29310344827587,99.80340968858549C99.92959770114943,100.02526734146548,100.566091954023,106.60054457353456,101.20258620689656,106.60054457353456C101.83908045977012,106.60054457353456,102.47557471264368,103.14426894020987,103.11206896551724,103.14426894020987C103.7485632183908,103.14426894020987,104.38505747126437,106.27024598493472,105.02155172413794,106.27024598493472C105.6580459770115,106.27024598493472,106.29454022988506,106.03236081626451,106.93103448275862,105.64347145471928C107.56752873563218,105.25458209317404,108.20402298850576,103.9369098156633,108.84051724137932,103.9369098156633C109.47701149425288,103.9369098156633,110.11350574712644,116.75645173551234,110.75,120.97804568345822C111.38649425287356,125.19963963140412,112.02298850574714,129.2664735033386,112.6594827586207,129.2664735033386C113.29597701149426,129.2664735033386,113.93247126436782,121.09177586554895,114.56896551724138,118.71354727149465C115.20545977011494,116.33531867744033,115.84195402298852,114.99710193901277,116.47844827586208,114.99710193901277C117.11494252873564,114.99710193901277,117.7514367816092,119.94603557264237,118.38793103448276,119.94603557264237C119.02442528735632,119.94603557264237,119.6609195402299,119.77526308781648,120.29741379310346,119.43371811816472C120.93390804597702,119.09217314851296,121.57040229885058,117.0309544369195,122.20689655172414,115.81051944613228C122.8433908045977,114.59008445534505,123.47988505747126,113.13604322854349,124.11637931034483,112.11110817344138C124.75287356321839,111.08617311833926,125.38936781609196,110.17593512865544,126.02586206896552,109.6609091155196C126.66235632183908,109.14588310238378,127.29885057471265,108.88837009581586,127.9353448275862,108.88837009581586C128.57183908045977,108.88837009581586,129.20833333333331,112.25887470134823,129.8448275862069,112.25887470134823C130.48132183908046,112.25887470134823,131.117816091954,111.97277539433588,131.7543103448276,111.40057678031117C132.39080459770116,110.82837816628646,133.0272988505747,108.66962807143553,133.66379310344828,107.26360450086679C134.30028735632186,105.85758093029806,134.9367816091954,102.96443535689875,135.57327586206898,102.96443535689875C136.20977011494253,102.96443535689875,136.8462643678161,104.09658891280871,137.48275862068965,104.09658891280871C138.11925287356323,104.09658891280871,138.75574712643677,99.82645564974457,139.39224137931035,99.31287475868C140.02873563218392,98.79929386761542,140.66522988505747,98.54250342208313,141.30172413793105,98.54250342208313C141.9382183908046,98.54250342208313,142.57471264367817,103.30766001515411,143.21120689655172,103.30766001515411C143.8477011494253,103.30766001515411,144.48419540229884,99.53700007512506,145.1206896551724,99.22777518251822C145.757183908046,98.91855028991137,146.39367816091954,99.0731627362148,147.0301724137931,98.76393784360795C147.66666666666669,98.4547129510011,148.30316091954023,97.65718358576073,148.9396551724138,97.21211640916526C149.57614942528735,96.76704923256979,150.21264367816093,96.09353478403511,150.84913793103448,96.09353478403511C151.48563218390805,96.09353478403511,152.1221264367816,97.86545384480233,152.75862068965517,97.93855819231783C153.39511494252875,98.01166253983332,154.0316091954023,97.97511036607557,154.66810344827587,98.04821471359107C155.30459770114945,98.12131906110656,155.941091954023,106.21223420565248,156.57758620689657,108.73842798562676C157.21408045977012,111.264621765601,157.8505747126437,112.48394347622569,158.48706896551724,113.20537739343673C159.1235632183908,113.92681131064779,159.76005747126436,114.28752826925331,160.39655172413794,114.28752826925331C161.0330459770115,114.28752826925331,161.66954022988506,113.44704595015737,162.30603448275863,113.44704595015737C162.94252873563218,113.44704595015737,163.57902298850576,118.42412308528958,164.2155172413793,119.56556891204812C164.85201149425288,120.70701473880668,165.48850574712642,121.27773765218596,166.125,121.27773765218596C166.76149425287358,121.27773765218596,167.39798850574712,116.23953073287893,168.0344827586207,115.35041456267822C168.67097701149427,114.46129839247752,169.30747126436782,114.90585647757787,169.9439655172414,114.01674030737716C170.58045977011494,113.12762413717647,171.21695402298852,109.37104302073787,171.85344827586206,106.95698405629267C172.48994252873564,104.54292509184744,173.1264367816092,101.6611344701148,173.76293103448276,99.53238652070584C174.39942528735634,97.40363857129688,175.03591954022988,95.41880510412379,175.67241379310346,94.18449635983893C176.30890804597703,92.95018761555407,176.94540229885058,92.89122522643568,177.58189655172416,92.12653405499668C178.2183908045977,91.3618428835577,178.85488505747128,89.76614213190994,179.49137931034483,89.59634933120499C180.1278735632184,89.42655653050002,180.76436781609195,89.44234869949918,181.40086206896552,89.34166013014755C182.0373563218391,89.24097156079591,182.67385057471265,89.22517939179677,183.31034482758622,88.99221791509522C183.94683908045977,88.75925643839368,184.58333333333334,88.05625643089311,185.2198275862069,87.48489621163577C185.85632183908046,86.91353599237841,186.492816091954,85.56405659955114,187.1293103448276,85.56405659955114C187.76580459770116,85.56405659955114,188.4022988505747,85.99450438834552,189.03879310344828,86.16148977546376C189.67528735632186,86.32847516258201,190.3117816091954,86.33365768913404,190.94827586206898,86.56596892226062C191.58477011494253,86.79828015538719,192.2212643678161,87.55535717422319,192.85775862068965,87.55535717422319C193.49425287356323,87.55535717422319,194.13074712643677,83.8679916430244,194.76724137931035,82.98354500885885C195.40373563218392,82.09909837469331,196.04022988505747,82.54132169177609,196.67672413793105,81.65687505761055C197.31321839080462,80.772428423445,197.94971264367817,78.94708659969548,198.58620689655174,77.62638577138556C199.2227011494253,76.30568494307566,199.85919540229887,73.73267008775107,200.4956896551724,73.73267008775107C201.132183908046,73.73267008775107,201.76867816091954,76.76223049536566,202.4051724137931,76.76223049536566C203.04166666666669,76.76223049536566,203.67816091954023,76.36017031886068,204.3146551724138,75.55604996585072C204.95114942528735,74.75192961284077,205.58764367816093,72.81236077999593,206.22413793103448,71.85985253072776C206.86063218390805,70.90734428145959,207.4971264367816,69.84100047024172,208.13362068965517,69.84100047024172C208.77011494252875,69.84100047024172,209.4066091954023,72.08987349451327,210.04310344827587,72.08987349451327C210.67959770114945,72.08987349451327,211.316091954023,63.80955363355623,211.95258620689657,63.80955363355623C212.58908045977012,63.80955363355623,213.2255747126437,64.4971844401545,213.86206896551724,64.4971844401545C214.4985632183908,64.4971844401545,215.13505747126436,62.12192206085605,215.77155172413794,62.12192206085605C216.4080459770115,62.12192206085605,217.04454022988506,62.63298162501681,217.68103448275863,63.65510075333833C218.3175287356322,64.67721988165985,218.95402298850576,68.37186860395678,219.59051724137933,68.37186860395678C220.22701149425288,68.37186860395678,220.86350574712645,68.32379459191918,221.5,68.22764656784399C222.13649425287358,68.1314985437688,222.77298850574712,62.74626419750014,223.4094827586207,60.06576632719931C224.04597701149427,57.38526845689849,224.68247126436782,52.14465934603905,225.3189655172414,52.14465934603905C225.95545977011494,52.14465934603905,226.59195402298852,52.1952468275009,227.22844827586206,52.29642179042461C227.86494252873564,52.39759675334832,228.5014367816092,53.265618830387965,229.13793103448276,53.265618830387965C229.77442528735634,53.265618830387965,230.41091954022988,43.10171016795697,231.04741379310346,43.10171016795697C231.68390804597703,43.10171016795697,232.32040229885058,50.46381466954667,232.95689655172416,50.46381466954667C233.5933908045977,50.46381466954667,234.22988505747128,39.99191268253562,234.86637931034483,39.99191268253562C235.5028735632184,39.99191268253562,236.13936781609195,44.65327935450661,236.77586206896552,44.65327935450661C237.4123563218391,44.65327935450661,238.04885057471265,41.495536421444385,238.68534482758622,41.495536421444385C239.3218390804598,41.495536421444385,239.95833333333334,45.17590610945134,240.59482758620692,46.315331773761535C241.23132183908046,47.45475743807172,241.86781609195404,46.987584651609545,242.5043103448276,48.332090407305564C243.14080459770116,49.676596163001605,243.7772988505747,54.05749826353107,244.41379310344828,56.04209276321866C245.05028735632186,58.02668726290625,245.6867816091954,60.23965740543111,246.32327586206898,60.23965740543111C246.95977011494253,60.23965740543111,247.5962643678161,55.396998696104305,248.23275862068965,55.396998696104305C248.86925287356323,55.396998696104305,249.50574712643677,55.56747855151082,250.14224137931035,55.90843826232384C250.77873563218392,56.249397973136865,251.41522988505747,57.64868842900335,252.05172413793105,57.64868842900335C252.68821839080462,57.64868842900335,253.32471264367817,56.35796883733238,253.96120689655174,55.78559949286401C254.5977011494253,55.213230148395645,255.23419540229887,54.214472362193135,255.8706896551724,54.214472362193135C256.507183908046,54.214472362193135,257.14367816091954,54.74616963056972,257.78017241379314,55.809564167322876C258.4166666666667,56.87295870407599,259.05316091954023,78.77203423256684,259.6896551724138,78.77203423256684C260.3261494252873,78.77203423256684,260.96264367816093,78.43412852778326,261.5991379310345,77.75831711821608C262.235632183908,77.08250570864891,262.8721264367816,74.21089815067356,263.5086206896552,74.21089815067356C264.1451149425287,74.21089815067356,264.7816091954023,78.91617457990095,265.4181034482759,78.91617457990095C266.0545977011494,78.91617457990095,266.691091954023,78.28394156236438,267.32758620689657,77.57048055395241C267.9640804597701,76.85701954554044,268.6005747126437,74.63540852942914,269.23706896551727,74.63540852942914C269.8735632183908,74.63540852942914,270.5100574712644,78.55647700795211,271.14655172413796,78.55647700795211C271.7830459770115,78.55647700795211,272.41954022988506,71.99741523576584,273.0560344827586,69.38408920046601C273.69252873563215,66.7707631651661,274.32902298850576,62.87652079615298,274.9655172413793,62.87652079615298C275.60201149425285,62.87652079615298,276.23850574712645,63.3671537491165,276.875,64.34841965504353C277.51149425287355,65.32968556097056,278.14798850574715,69.77335805980061,278.7844827586207,69.77335805980061C279.42097701149424,69.77335805980061,280.05747126436785,68.04730005088723,280.6939655172414,68.04730005088723C281.33045977011494,68.04730005088723,281.96695402298855,68.16512849773946,282.6034482758621,68.4007853914439C283.23994252873564,68.63644228514835,283.87643678160924,81.49696862454098,284.5129310344828,85.33748199699338C285.14942528735634,89.17799536944565,285.7859195402299,91.44386562615824,286.42241379310343,91.44386562615824C287.058908045977,91.44386562615824,287.6954022988506,83.29413644745775,288.3318965517241,81.47511149109681C288.9683908045977,79.65608653473588,289.6048850574713,78.74657405655542,290.2413793103448,78.74657405655542C290.8778735632184,78.74657405655542,291.514367816092,85.25138826951385,292.1508620689655,85.25138826951385C292.78735632183907,85.25138826951385,293.4238505747127,85.2312984466115,294.0603448275862,85.2312984466115C294.69683908045977,85.2312984466115,295.33333333333337,85.8708029027495,295.9698275862069,85.97835052261074C296.60632183908046,86.08589814247198,297.24281609195407,86.03212433254136,297.8793103448276,86.1396719524026C298.51580459770116,86.24721957226383,299.15229885057477,86.3012187447951,299.7887931034483,86.62431232958008C300.42528735632186,86.94740591436506,301.0617816091954,87.95902187980063,301.69827586206895,88.93971238479438C302.3347701149425,89.92040288978815,302.9712643678161,92.50845535954271,303.60775862068965,92.50845535954271C304.2442528735632,92.50845535954271,304.8807471264368,85.55554221710437,305.51724137931035,85.31089210089644C306.1537356321839,85.0662419846885,306.7902298850575,84.94391692658454,307.42672413793105,84.94391692658454C308.0632183908046,84.94391692658454,308.6997126436782,85.4120980173244,309.33620689655174,85.48405129505382C309.9727011494253,85.55600457278324,310.6091954022989,85.59198121164795,311.24568965517244,85.59198121164795C311.882183908046,85.59198121164795,312.5186781609196,82.38042566630628,313.15517241379314,82.38042566630628C313.7916666666667,82.38042566630628,314.42816091954023,83.200744886379,315.0646551724138,83.45574755332218C315.7011494252873,83.71075022026537,316.33764367816093,83.91044166796536,316.9741379310345,83.91044166796536C317.610632183908,83.91044166796536,318.2471264367816,77.94815207627623,318.8836206896552,75.81344882490255C319.5201149425287,73.67874557352887,320.1566091954023,71.1022221597233,320.7931034482759,71.1022221597233C321.4295977011494,71.1022221597233,322.066091954023,75.1468062641833,322.70258620689657,75.1468062641833C323.3390804597701,75.1468062641833,323.9755747126437,73.91073496639414,324.61206896551727,72.46094487445382C325.2485632183908,71.01115478251349,325.8850574712644,66.44806571254131,326.52155172413796,66.44806571254131C327.1580459770115,66.44806571254131,327.79454022988506,70.10350949510368,328.4310344827586,71.50239318963557C329.06752873563215,72.9012768841675,329.70402298850576,74.84136787973269,330.3405172413793,74.84136787973269C330.97701149425285,74.84136787973269,331.61350574712645,73.7196118807629,332.25,73.7196118807629C332.88649425287355,73.7196118807629,333.52298850574715,76.04956846255936,334.1594827586207,76.04956846255936C334.79597701149424,76.04956846255936,335.43247126436785,75.9552841110028,336.0689655172414,75.76671540788966C336.70545977011494,75.57814670477653,337.34195402298855,74.56119518221813,337.9784482758621,74.14348974628976C338.61494252873564,73.72578431036139,339.25143678160924,73.84915409496634,339.8879310344828,73.2604827923195C340.52442528735634,72.67181148967265,341.16091954022994,71.59973392979109,341.7974137931035,70.52763857394754C342.43390804597703,69.45554321810403,343.0704022988506,68.1757782342643,343.7068965517241,66.82791065725833C344.3433908045977,65.48004308025233,344.9798850574713,63.42356833100307,345.6163793103448,62.4404331119116C346.2528735632184,61.45729789282014,346.889367816092,60.92909934270953,347.5258620689655,60.92909934270953C348.16235632183907,60.92909934270953,348.7988505747127,62.82296137532766,349.4353448275862,62.82296137532766C350.07183908045977,62.82296137532766,350.70833333333337,61.09786472756833,351.3448275862069,60.27041128491331C351.98132183908046,59.44295784225829,352.61781609195407,57.858240719397536,353.2543103448276,57.858240719397536C353.89080459770116,57.858240719397536,354.52729885057477,68.22805203173922,355.1637931034483,68.22805203173922C355.80028735632186,68.22805203173922,356.4367816091954,64.95736706515017,357.07327586206895,62.92998527402691C357.7097701149425,60.9026034829036,358.3462643678161,56.06376128499948,358.98275862068965,56.06376128499948C359.6192528735632,56.06376128499948,360.2557471264368,57.67522798002368,360.89224137931035,58.30220301374579C361.5287356321839,58.9291780474679,362.1652298850575,59.82561148733216,362.80172413793105,59.82561148733216C363.4382183908046,59.82561148733216,364.0747126436782,57.33320680427966,364.71120689655174,56.45408797704911C365.3477011494253,55.574969149818564,365.9841954022989,55.41661983880501,366.62068965517244,54.55089852394887C367.257183908046,53.68517720909272,367.8936781609196,51.25976008791225,368.53017241379314,51.25976008791225C369.1666666666667,51.25976008791225,369.80316091954023,51.35386821501144,370.4396551724138,51.35386821501144C371.0761494252873,51.35386821501144,371.71264367816093,46.645947691684746,372.3491379310345,45.171134814041835C372.985632183908,43.696321936398924,373.6221264367816,43.29404624151095,374.2586206896552,42.50499094915398C374.8951149425287,41.71593565679701,375.5316091954023,41.13550508225601,376.1681034482759,40.4368030599C376.8045977011494,39.73810103754399,377.441091954023,38.312778815017936,378.07758620689657,38.312778815017936C378.7140804597701,38.312778815017936,379.3505747126437,41.109182739043035,379.98706896551727,42.62009194159781C380.6235632183908,44.13100114415259,381.2600574712644,47.37823403034659,381.89655172413796,47.37823403034659C382.5330459770115,47.37823403034659,383.1695402298851,43.44320379668303,383.80603448275866,43.44320379668303C384.4425287356322,43.44320379668303,385.07902298850576,43.97856102411163,385.7155172413793,43.97856102411163C386.35201149425285,43.97856102411163,386.98850574712645,40.15494208080902,387.625,39.32049061103357C388.26149425287355,38.48603914125812,388.89798850574715,38.068813406370396,389.5344827586207,38.068813406370396C390.17097701149424,38.068813406370396,390.80747126436785,39.83727298176214,391.4439655172414,41.68902767148317C392.08045977011494,43.540782361204194,392.71695402298855,49.179341544696534,393.3534482758621,49.179341544696534C393.98994252873564,49.179341544696534,394.62643678160924,48.18199895737975,395.2629310344828,48.18199895737975C395.89942528735634,48.18199895737975,396.53591954022994,57.278377707197265,397.1724137931035,57.278377707197265C397.80890804597703,57.278377707197265,398.4454022988506,48.89479040626214,399.0818965517241,46.09948622212439C399.7183908045977,43.30418203798656,400.3548850574713,40.506552602370675,400.9913793103448,40.506552602370675C401.6278735632184,40.506552602370675,402.264367816092,43.958458844396816,402.9008620689655,45.65555565338864C403.53735632183907,47.35265246238046,404.1738505747127,50.689133456321635,404.8103448275862,50.689133456321635C405.44683908045977,50.689133456321635,406.08333333333337,42.634923833016416,406.7198275862069,42.634923833016416C407.35632183908046,42.634923833016416,407.99281609195407,43.58808483155369,408.6293103448276,43.58808483155369C409.26580459770116,43.58808483155369,409.90229885057477,34.6150445380614,410.5387931034483,34.6150445380614C411.17528735632186,34.6150445380614,411.8117816091954,49.014999563421654,412.44827586206895,49.014999563421654C413.0847701149425,49.014999563421654,413.7212643678161,47.312362653567746,414.35775862068965,46.37647640624214C414.9942528735632,45.440590158916535,415.6307471264368,44.518406318630646,416.26724137931035,43.399682079468C416.9037356321839,42.280957840305355,417.5402298850575,40.30124422584311,418.17672413793105,39.66413097126627C418.8132183908046,39.02701771668943,419.4497126436782,38.708461089401005,420.08620689655174,38.708461089401005C420.7227011494253,38.708461089401005,421.3591954022989,39.02070314420963,421.99568965517244,39.19066679803707C422.632183908046,39.360630451864516,423.2686781609196,39.36985886947994,423.90517241379314,39.72824301236569C424.5416666666667,40.086627155251435,425.1781609195403,42.8947900784101,425.81465517241384,45.73590957863682C426.4511494252874,48.57702907886346,427.08764367816093,55.602944590142876,427.7241379310345,56.774960013725625C428.360632183908,57.94697543730841,428.9971264367816,58.532983149099806,429.6336206896552,58.532983149099806C430.2701149425287,58.532983149099806,430.9066091954023,58.04120493540106,431.5431034482759,58.04120493540106C432.1795977011494,58.04120493540106,432.816091954023,61.10368718394324,433.45258620689657,61.10368718394324C434.0890804597701,61.10368718394324,434.7255747126437,57.0340590272568,435.36206896551727,57.0340590272568C435.9985632183908,57.0340590272568,436.6350574712644,63.972698176757945,437.27155172413796,66.1358633106881C437.9080459770115,68.29902844461824,438.5445402298851,70.01304983083772,439.18103448275866,70.01304983083772C439.8175287356322,70.01304983083772,440.45402298850576,67.19233397511302,441.0905172413793,67.19233397511302C441.72701149425285,67.19233397511302,442.36350574712645,67.29528216053126,443,67.39823034594951L443,215C442.36350574712645,215,441.72701149425285,215,441.0905172413793,215C440.45402298850576,215,439.8175287356322,215,439.18103448275866,215C438.5445402298851,215,437.9080459770115,215,437.27155172413796,215C436.6350574712644,215,435.9985632183908,215,435.36206896551727,215C434.7255747126437,215,434.0890804597701,215,433.45258620689657,215C432.816091954023,215,432.1795977011494,215,431.5431034482759,215C430.9066091954023,215,430.2701149425287,215,429.6336206896552,215C428.9971264367816,215,428.360632183908,215,427.7241379310345,215C427.08764367816093,215,426.4511494252874,215,425.81465517241384,215C425.1781609195403,215,424.5416666666667,215,423.90517241379314,215C423.2686781609196,215,422.632183908046,215,421.99568965517244,215C421.3591954022989,215,420.7227011494253,215,420.08620689655174,215C419.4497126436782,215,418.8132183908046,215,418.17672413793105,215C417.5402298850575,215,416.9037356321839,215,416.26724137931035,215C415.6307471264368,215,414.9942528735632,215,414.35775862068965,215C413.7212643678161,215,413.0847701149425,215,412.44827586206895,215C411.8117816091954,215,411.17528735632186,215,410.5387931034483,215C409.90229885057477,215,409.26580459770116,215,408.6293103448276,215C407.99281609195407,215,407.35632183908046,215,406.7198275862069,215C406.08333333333337,215,405.44683908045977,215,404.8103448275862,215C404.1738505747127,215,403.53735632183907,215,402.9008620689655,215C402.264367816092,215,401.6278735632184,215,400.9913793103448,215C400.3548850574713,215,399.7183908045977,215,399.0818965517241,215C398.4454022988506,215,397.80890804597703,215,397.1724137931035,215C396.53591954022994,215,395.89942528735634,215,395.2629310344828,215C394.62643678160924,215,393.98994252873564,215,393.3534482758621,215C392.71695402298855,215,392.08045977011494,215,391.4439655172414,215C390.80747126436785,215,390.17097701149424,215,389.5344827586207,215C388.89798850574715,215,388.26149425287355,215,387.625,215C386.98850574712645,215,386.35201149425285,215,385.7155172413793,215C385.07902298850576,215,384.4425287356322,215,383.80603448275866,215C383.1695402298851,215,382.5330459770115,215,381.89655172413796,215C381.2600574712644,215,380.6235632183908,215,379.98706896551727,215C379.3505747126437,215,378.7140804597701,215,378.07758620689657,215C377.441091954023,215,376.8045977011494,215,376.1681034482759,215C375.5316091954023,215,374.8951149425287,215,374.2586206896552,215C373.6221264367816,215,372.985632183908,215,372.3491379310345,215C371.71264367816093,215,371.0761494252873,215,370.4396551724138,215C369.80316091954023,215,369.1666666666667,215,368.53017241379314,215C367.8936781609196,215,367.257183908046,215,366.62068965517244,215C365.9841954022989,215,365.3477011494253,215,364.71120689655174,215C364.0747126436782,215,363.4382183908046,215,362.80172413793105,215C362.1652298850575,215,361.5287356321839,215,360.89224137931035,215C360.2557471264368,215,359.6192528735632,215,358.98275862068965,215C358.3462643678161,215,357.7097701149425,215,357.07327586206895,215C356.4367816091954,215,355.80028735632186,215,355.1637931034483,215C354.52729885057477,215,353.89080459770116,215,353.2543103448276,215C352.61781609195407,215,351.98132183908046,215,351.3448275862069,215C350.70833333333337,215,350.07183908045977,215,349.4353448275862,215C348.7988505747127,215,348.16235632183907,215,347.5258620689655,215C346.889367816092,215,346.2528735632184,215,345.6163793103448,215C344.9798850574713,215,344.3433908045977,215,343.7068965517241,215C343.0704022988506,215,342.43390804597703,215,341.7974137931035,215C341.16091954022994,215,340.52442528735634,215,339.8879310344828,215C339.25143678160924,215,338.61494252873564,215,337.9784482758621,215C337.34195402298855,215,336.70545977011494,215,336.0689655172414,215C335.43247126436785,215,334.79597701149424,215,334.1594827586207,215C333.52298850574715,215,332.88649425287355,215,332.25,215C331.61350574712645,215,330.97701149425285,215,330.3405172413793,215C329.70402298850576,215,329.06752873563215,215,328.4310344827586,215C327.79454022988506,215,327.1580459770115,215,326.52155172413796,215C325.8850574712644,215,325.2485632183908,215,324.61206896551727,215C323.9755747126437,215,323.3390804597701,215,322.70258620689657,215C322.066091954023,215,321.4295977011494,215,320.7931034482759,215C320.1566091954023,215,319.5201149425287,215,318.8836206896552,215C318.2471264367816,215,317.610632183908,215,316.9741379310345,215C316.33764367816093,215,315.7011494252873,215,315.0646551724138,215C314.42816091954023,215,313.7916666666667,215,313.15517241379314,215C312.5186781609196,215,311.882183908046,215,311.24568965517244,215C310.6091954022989,215,309.9727011494253,215,309.33620689655174,215C308.6997126436782,215,308.0632183908046,215,307.42672413793105,215C306.7902298850575,215,306.1537356321839,215,305.51724137931035,215C304.8807471264368,215,304.2442528735632,215,303.60775862068965,215C302.9712643678161,215,302.3347701149425,215,301.69827586206895,215C301.0617816091954,215,300.42528735632186,215,299.7887931034483,215C299.15229885057477,215,298.51580459770116,215,297.8793103448276,215C297.24281609195407,215,296.60632183908046,215,295.9698275862069,215C295.33333333333337,215,294.69683908045977,215,294.0603448275862,215C293.4238505747127,215,292.78735632183907,215,292.1508620689655,215C291.514367816092,215,290.8778735632184,215,290.2413793103448,215C289.6048850574713,215,288.9683908045977,215,288.3318965517241,215C287.6954022988506,215,287.058908045977,215,286.42241379310343,215C285.7859195402299,215,285.14942528735634,215,284.5129310344828,215C283.87643678160924,215,283.23994252873564,215,282.6034482758621,215C281.96695402298855,215,281.33045977011494,215,280.6939655172414,215C280.05747126436785,215,279.42097701149424,215,278.7844827586207,215C278.14798850574715,215,277.51149425287355,215,276.875,215C276.23850574712645,215,275.60201149425285,215,274.9655172413793,215C274.32902298850576,215,273.69252873563215,215,273.0560344827586,215C272.41954022988506,215,271.7830459770115,215,271.14655172413796,215C270.5100574712644,215,269.8735632183908,215,269.23706896551727,215C268.6005747126437,215,267.9640804597701,215,267.32758620689657,215C266.691091954023,215,266.0545977011494,215,265.4181034482759,215C264.7816091954023,215,264.1451149425287,215,263.5086206896552,215C262.8721264367816,215,262.235632183908,215,261.5991379310345,215C260.96264367816093,215,260.3261494252873,215,259.6896551724138,215C259.05316091954023,215,258.4166666666667,215,257.78017241379314,215C257.14367816091954,215,256.507183908046,215,255.8706896551724,215C255.23419540229887,215,254.5977011494253,215,253.96120689655174,215C253.32471264367817,215,252.68821839080462,215,252.05172413793105,215C251.41522988505747,215,250.77873563218392,215,250.14224137931035,215C249.50574712643677,215,248.86925287356323,215,248.23275862068965,215C247.5962643678161,215,246.95977011494253,215,246.32327586206898,215C245.6867816091954,215,245.05028735632186,215,244.41379310344828,215C243.7772988505747,215,243.14080459770116,215,242.5043103448276,215C241.86781609195404,215,241.23132183908046,215,240.59482758620692,215C239.95833333333334,215,239.3218390804598,215,238.68534482758622,215C238.04885057471265,215,237.4123563218391,215,236.77586206896552,215C236.13936781609195,215,235.5028735632184,215,234.86637931034483,215C234.22988505747128,215,233.5933908045977,215,232.95689655172416,215C232.32040229885058,215,231.68390804597703,215,231.04741379310346,215C230.41091954022988,215,229.77442528735634,215,229.13793103448276,215C228.5014367816092,215,227.86494252873564,215,227.22844827586206,215C226.59195402298852,215,225.95545977011494,215,225.3189655172414,215C224.68247126436782,215,224.04597701149427,215,223.4094827586207,215C222.77298850574712,215,222.13649425287358,215,221.5,215C220.86350574712645,215,220.22701149425288,215,219.59051724137933,215C218.95402298850576,215,218.3175287356322,215,217.68103448275863,215C217.04454022988506,215,216.4080459770115,215,215.77155172413794,215C215.13505747126436,215,214.4985632183908,215,213.86206896551724,215C213.2255747126437,215,212.58908045977012,215,211.95258620689657,215C211.316091954023,215,210.67959770114945,215,210.04310344827587,215C209.4066091954023,215,208.77011494252875,215,208.13362068965517,215C207.4971264367816,215,206.86063218390805,215,206.22413793103448,215C205.58764367816093,215,204.95114942528735,215,204.3146551724138,215C203.67816091954023,215,203.04166666666669,215,202.4051724137931,215C201.76867816091954,215,201.132183908046,215,200.4956896551724,215C199.85919540229887,215,199.2227011494253,215,198.58620689655174,215C197.94971264367817,215,197.31321839080462,215,196.67672413793105,215C196.04022988505747,215,195.40373563218392,215,194.76724137931035,215C194.13074712643677,215,193.49425287356323,215,192.85775862068965,215C192.2212643678161,215,191.58477011494253,215,190.94827586206898,215C190.3117816091954,215,189.67528735632186,215,189.03879310344828,215C188.4022988505747,215,187.76580459770116,215,187.1293103448276,215C186.492816091954,215,185.85632183908046,215,185.2198275862069,215C184.58333333333334,215,183.94683908045977,215,183.31034482758622,215C182.67385057471265,215,182.0373563218391,215,181.40086206896552,215C180.76436781609195,215,180.1278735632184,215,179.49137931034483,215C178.85488505747128,215,178.2183908045977,215,177.58189655172416,215C176.94540229885058,215,176.30890804597703,215,175.67241379310346,215C175.03591954022988,215,174.39942528735634,215,173.76293103448276,215C173.1264367816092,215,172.48994252873564,215,171.85344827586206,215C171.21695402298852,215,170.58045977011494,215,169.9439655172414,215C169.30747126436782,215,168.67097701149427,215,168.0344827586207,215C167.39798850574712,215,166.76149425287358,215,166.125,215C165.48850574712642,215,164.85201149425288,215,164.2155172413793,215C163.57902298850576,215,162.94252873563218,215,162.30603448275863,215C161.66954022988506,215,161.0330459770115,215,160.39655172413794,215C159.76005747126436,215,159.1235632183908,215,158.48706896551724,215C157.8505747126437,215,157.21408045977012,215,156.57758620689657,215C155.941091954023,215,155.30459770114945,215,154.66810344827587,215C154.0316091954023,215,153.39511494252875,215,152.75862068965517,215C152.1221264367816,215,151.48563218390805,215,150.84913793103448,215C150.21264367816093,215,149.57614942528735,215,148.9396551724138,215C148.30316091954023,215,147.66666666666669,215,147.0301724137931,215C146.39367816091954,215,145.757183908046,215,145.1206896551724,215C144.48419540229884,215,143.8477011494253,215,143.21120689655172,215C142.57471264367817,215,141.9382183908046,215,141.30172413793105,215C140.66522988505747,215,140.02873563218392,215,139.39224137931035,215C138.75574712643677,215,138.11925287356323,215,137.48275862068965,215C136.8462643678161,215,136.20977011494253,215,135.57327586206898,215C134.9367816091954,215,134.30028735632186,215,133.66379310344828,215C133.0272988505747,215,132.39080459770116,215,131.7543103448276,215C131.117816091954,215,130.48132183908046,215,129.8448275862069,215C129.20833333333331,215,128.57183908045977,215,127.9353448275862,215C127.29885057471265,215,126.66235632183908,215,126.02586206896552,215C125.38936781609196,215,124.75287356321839,215,124.11637931034483,215C123.47988505747126,215,122.8433908045977,215,122.20689655172414,215C121.57040229885058,215,120.93390804597702,215,120.29741379310346,215C119.6609195402299,215,119.02442528735632,215,118.38793103448276,215C117.7514367816092,215,117.11494252873564,215,116.47844827586208,215C115.84195402298852,215,115.20545977011494,215,114.56896551724138,215C113.93247126436782,215,113.29597701149426,215,112.6594827586207,215C112.02298850574714,215,111.38649425287356,215,110.75,215C110.11350574712644,215,109.47701149425288,215,108.84051724137932,215C108.20402298850576,215,107.56752873563218,215,106.93103448275862,215C106.29454022988506,215,105.6580459770115,215,105.02155172413794,215C104.38505747126437,215,103.7485632183908,215,103.11206896551724,215C102.47557471264368,215,101.83908045977012,215,101.20258620689656,215C100.566091954023,215,99.92959770114943,215,99.29310344827587,215C98.65660919540231,215,98.02011494252874,215,97.38362068965517,215C96.74712643678161,215,96.11063218390805,215,95.47413793103449,215C94.83764367816093,215,94.20114942528735,215,93.5646551724138,215C92.92816091954023,215,92.29166666666667,215,91.65517241379311,215C91.01867816091955,215,90.38218390804597,215,89.74568965517241,215C89.10919540229885,215,88.47270114942529,215,87.83620689655173,215C87.19971264367817,215,86.5632183908046,215,85.92672413793103,215C85.29022988505747,215,84.65373563218391,215,84.01724137931035,215C83.38074712643679,215,82.74425287356321,215,82.10775862068965,215C81.47126436781609,215,80.83477011494253,215,80.19827586206897,215C79.5617816091954,215,78.92528735632185,215,78.28879310344828,215C77.65229885057472,215,77.01580459770115,215,76.37931034482759,215C75.74281609195403,215,75.10632183908046,215,74.4698275862069,215C73.83333333333334,215,73.19683908045977,215,72.5603448275862,215C71.92385057471265,215,71.28735632183908,215,70.65086206896552,215C70.01436781609196,215,69.37787356321839,215,68.74137931034483,215C68.10488505747126,215,67.4683908045977,215,66.83189655172414,215C66.19540229885058,215,65.558908045977,215,64.92241379310344,215C64.28591954022988,215,63.64942528735632,215,63.01293103448276,215C62.3764367816092,215,61.73994252873563,215,61.10344827586207,215C60.46695402298851,215,59.83045977011494,215,59.19396551724138,215C58.55747126436782,215,57.92097701149425,215,57.28448275862069,215C56.64798850574713,215,56.01149425287356,215,55.375,215C54.73850574712644,215,54.10201149425287,215,53.46551724137931,215C52.82902298850575,215,52.19252873563218,215,51.55603448275862,215C50.91954022988506,215,50.2830459770115,215,49.646551724137936,215C49.010057471264375,215,48.37356321839081,215,47.737068965517246,215C47.100574712643684,215,46.464080459770116,215,45.827586206896555,215C45.191091954022994,215,44.554597701149426,215,43.918103448275865,215C43.281609195402304,215,42.645114942528735,215,42.008620689655174,215C41.37212643678161,215,40.735632183908045,215,40.099137931034484,215C39.46264367816092,215,38.826149425287355,215,38.189655172413794,215C37.55316091954023,215,36.916666666666664,215,36.2801724137931,215C35.64367816091954,215,35.007183908045974,215,34.37068965517241,215C33.73419540229885,215,33.09770114942528,215,32.46120689655172,215C31.82471264367816,215,31.188218390804597,215,30.551724137931036,215C29.91522988505747,215,29.27873563218391,215,28.642241379310345,215C28.00574712643678,215,27.36925287356322,215,26.732758620689655,215C26.096264367816094,215,25.45977011494253,215,24.823275862068968,215C24.186781609195403,215,23.550287356321842,215,22.913793103448278,215C22.277298850574713,215,21.640804597701152,215,21.004310344827587,215C20.367816091954023,215,19.73132183908046,215,19.094827586206897,215C18.458333333333332,215,17.82183908045977,215,17.185344827586206,215C16.548850574712645,215,15.91235632183908,215,15.275862068965518,215C14.639367816091955,215,14.00287356321839,215,13.366379310344827,215C12.729885057471265,215,12.093390804597702,215,11.456896551724139,215C10.820402298850576,215,10.183908045977011,215,9.547413793103448,215C8.910919540229886,215,8.274425287356323,215,7.637931034482759,215C7.001436781609196,215,6.364942528735632,215,5.728448275862069,215C5.0919540229885065,215,4.455459770114943,215,3.8189655172413794,215C3.182471264367816,215,2.545977011494253,215,1.9094827586206897,215C1.2729885057471266,215,0.6364942528735632,215,0,215Z"/><path type="monotone" stroke="#7645D9" fill="none" stroke-width="2" fill-opacity="0.6" points="[object Object],[object Object],[object Object],[object Object],[object Object],[object Object],[object Object],[object Object],[object Object],[object Object],[object Object],[object Object],[object Object],[object Object],[object Object],[object Object],[object Object],[object Object],[object Object],[object Object],[object Object],[object Object],[object Object],[object Object],[object Object],[object Object],[object Object],[object Object],[object Object],[object Object],[object Object],[object Object],[object Object],[object Object],[object Object],[object Object],[object Object],[object Object],[object Object],[object Object],[object Object],[object Object],[object Object],[object Object],[object Object],[object Object],[object Object],[object Object],[object Object],[object Object],[object Object],[object Object],[object Object],[object Object],[object Object],[object Object],[object Object],[object Object],[object Object],[object Object],[object Object],[object Object],[object Object],[object Object],[object Object],[object Object],[object Object],[object Object],[object Object],[object Object],[object Object],[object Object],[object Object],[object Object],[object Object],[object Object],[object Object],[object Object],[object Object],[object Object],[object Object],[object Object],[object Object],[object Object],[object Object],[object Object],[object Object],[object Object],[object Object],[object Object],[object Object],[object Object],[object Object],[object Object],[object Object],[object Object],[object Object],[object Object],[object Object],[object Object],[object Object],[object Object],[object Object],[object Object],[object Object],[object Object],[object Object],[object Object],[object Object],[object Object],[object Object],[object Object],[object Object],[object Object],[object Object],[object Object],[object Object],[object Object],[object Object],[object Object],[object Object],[object Object],[object Object],[object Object],[object Object],[object Object],[object Object],[object Object],[object Object],[object Object],[object Object],[object Object],[object Object],[object Object],[object Object],[object Object],[object Object],[object Object],[object Object],[object Object],[object Object],[object Object],[object Object],[object Object],[object Object],[object Object],[object Object],[object Object],[object Object],[object Object],[object Object],[object Object],[object Object],[object Object],[object Object],[object Object],[object Object],[object Object],[object Object],[object Object],[object Object],[object Object],[object Object],[object Object],[object Object],[object Object],[object Object],[object Object],[object Object],[object Object],[object Object],[object Object],[object Object],[object Object],[object Object],[object Object],[object Object],[object Object],[object Object],[object Object],[object Object],[object Object],[object Object],[object Object],[object Object],[object Object],[object Object],[object Object],[object Object],[object Object],[object Object],[object Object],[object Object],[object Object],[object Object],[object Object],[object Object],[object Object],[object Object],[object Object],[object Object],[object Object],[object Object],[object Object],[object Object],[object Object],[object Object],[object Object],[object Object],[object Object],[object Object],[object Object],[object Object],[object Object],[object Object],[object Object],[object Object],[object Object],[object Object],[object Object],[object Object],[object Object],[object Object],[object Object],[object Object],[object Object],[object Object],[object Object],[object Object],[object Object],[object Object],[object Object],[object Object]" width="443" height="210" class="recharts-curve recharts-area-curve" d="M0,131.20846844431534C0.6364942528735632,120.78588420288737,1.2729885057471266,110.36329996145939,1.9094827586206897,101.61093006420528C2.545977011494253,92.85856016695116,3.182471264367816,85.8932890278085,3.8189655172413794,78.69424906079067C4.455459770114943,71.49520909377283,5.0919540229885065,60.94914485300065,5.728448275862069,58.41669026209821C6.364942528735632,55.88423567119577,7.001436781609196,57.15046296664699,7.637931034482759,54.61800837574455C8.274425287356323,52.08555378484211,8.910919540229886,43.17615657497821,9.547413793103448,39.21532361901582C10.183908045977011,35.25449066305343,10.820402298850576,33.36727148744045,11.456896551724139,30.853010639970215C12.093390804597702,28.338749792499986,12.729885057471265,25.874062606268136,13.366379310344827,24.129758534194437C14.00287356321839,22.385454462120737,14.639367816091955,22.882234425305633,15.275862068965518,20.38718620752802C15.91235632183908,17.892137989750413,16.548850574712645,5,17.185344827586206,5C17.82183908045977,5,18.458333333333332,22.34530479868017,19.094827586206897,22.34530479868017C19.73132183908046,22.34530479868017,20.367816091954023,8.771326238471628,21.004310344827587,8.771326238471628C21.640804597701152,8.771326238471628,22.277298850574713,13.247596698068715,22.913793103448278,14.61882915066475C23.550287356321842,15.990061603260784,24.186781609195403,16.998720954047833,24.823275862068968,16.998720954047833C25.45977011494253,16.998720954047833,26.096264367816094,13.758372218147523,26.732758620689655,13.390728003694555C27.36925287356322,13.023083789241587,28.00574712643678,12.839261682015103,28.642241379310345,12.839261682015103C29.27873563218391,12.839261682015103,29.91522988505747,23.6531895703308,30.551724137931036,23.6531895703308C31.188218390804597,23.6531895703308,31.82471264367816,14.945707679691203,32.46120689655172,14.945707679691203C33.09770114942528,14.945707679691203,33.73419540229885,30.905204137475277,34.37068965517241,36.00196346757609C35.007183908045974,41.0987227976769,35.64367816091954,45.52626366029608,36.2801724137931,45.52626366029608C36.916666666666664,45.52626366029608,37.55316091954023,31.559231945796224,38.189655172413794,31.559231945796224C38.826149425287355,31.559231945796224,39.46264367816092,40.057766965708,40.099137931034484,42.89199427111836C40.735632183908045,45.726221576528715,41.37212643678161,45.305378935477364,42.008620689655174,48.56459577825836C42.645114942528735,51.82381262103935,43.281609195402304,62.44729532780431,43.918103448275865,62.44729532780431C44.554597701149426,62.44729532780431,45.191091954022994,60.826606828409666,45.827586206896555,60.826606828409666C46.464080459770116,60.826606828409666,47.100574712643684,122.52730594419886,47.737068965517246,122.52730594419886C48.37356321839081,122.52730594419886,49.010057471264375,115.03024462321572,49.646551724137936,115.03024462321572C50.2830459770115,115.03024462321572,50.91954022988506,126.19721339175939,51.55603448275862,129.47096241939443C52.19252873563218,132.74471144702946,52.82902298850575,131.92473559145344,53.46551724137931,134.67273878902589C54.10201149425287,137.42074198659833,54.73850574712644,145.95898160482906,55.375,145.95898160482906C56.01149425287356,145.95898160482906,56.64798850574713,127.76402997699904,57.28448275862069,127.34808003792163C57.92097701149425,126.93213009884423,58.55747126436782,127.14010506838292,59.19396551724138,126.72415512930552C59.83045977011494,126.30820519022811,60.46695402298851,117.93813025112188,61.10344827586207,117.76464222788346C61.73994252873563,117.59115420464504,62.3764367816092,117.50441019302583,63.01293103448276,117.50441019302583C63.64942528735632,117.50441019302583,64.28591954022988,123.52751432188774,64.92241379310344,125.8118429148487C65.558908045977,128.0961715078097,66.19540229885058,131.2103817507916,66.83189655172414,131.2103817507916C67.4683908045977,131.2103817507916,68.10488505747126,128.70330313831977,68.74137931034483,126.4441859762462C69.37787356321839,124.18506881417262,70.01436781609196,119.27880468922366,70.65086206896552,117.65567877835018C71.28735632183908,116.03255286747671,71.92385057471265,116.38489934799307,72.5603448275862,115.22098991203998C73.19683908045977,114.05708047608688,73.83333333333334,112.67569840573537,74.4698275862069,110.67222216263157C75.10632183908046,108.66874591952778,75.74281609195403,103.20013245341724,76.37931034482759,103.20013245341724C77.01580459770115,103.20013245341724,77.65229885057472,108.43706205506008,78.28879310344828,108.78698047486633C78.92528735632185,109.13689889467257,79.5617816091954,109.31185810457569,80.19827586206897,109.31185810457569C80.83477011494253,109.31185810457569,81.47126436781609,107.8607244013062,82.10775862068965,107.8607244013062C82.74425287356321,107.8607244013062,83.38074712643679,112.15462626484575,84.01724137931035,112.18436788622485C84.65373563218391,112.21410950760395,85.29022988505747,112.22898031829351,85.92672413793103,112.22898031829351C86.5632183908046,112.22898031829351,87.19971264367817,105.18546336514618,87.83620689655173,105.18546336514618C88.47270114942529,105.18546336514618,89.10919540229885,107.10136851697729,89.74568965517241,107.10136851697729C90.38218390804597,107.10136851697729,91.01867816091955,105.96247142013847,91.65517241379311,105.78676580670594C92.29166666666667,105.61106019327342,92.92816091954023,105.69891299998967,93.5646551724138,105.52320738655715C94.20114942528735,105.34750177312462,94.83764367816093,102.23716942269968,95.47413793103449,101.22840539315108C96.11063218390805,100.21964136360248,96.74712643678161,99.47062320926551,97.38362068965517,99.47062320926551C98.02011494252874,99.47062320926551,98.65660919540231,99.5815520357055,99.29310344827587,99.80340968858549C99.92959770114943,100.02526734146548,100.566091954023,106.60054457353456,101.20258620689656,106.60054457353456C101.83908045977012,106.60054457353456,102.47557471264368,103.14426894020987,103.11206896551724,103.14426894020987C103.7485632183908,103.14426894020987,104.38505747126437,106.27024598493472,105.02155172413794,106.27024598493472C105.6580459770115,106.27024598493472,106.29454022988506,106.03236081626451,106.93103448275862,105.64347145471928C107.56752873563218,105.25458209317404,108.20402298850576,103.9369098156633,108.84051724137932,103.9369098156633C109.47701149425288,103.9369098156633,110.11350574712644,116.75645173551234,110.75,120.97804568345822C111.38649425287356,125.19963963140412,112.02298850574714,129.2664735033386,112.6594827586207,129.2664735033386C113.29597701149426,129.2664735033386,113.93247126436782,121.09177586554895,114.56896551724138,118.71354727149465C115.20545977011494,116.33531867744033,115.84195402298852,114.99710193901277,116.47844827586208,114.99710193901277C117.11494252873564,114.99710193901277,117.7514367816092,119.94603557264237,118.38793103448276,119.94603557264237C119.02442528735632,119.94603557264237,119.6609195402299,119.77526308781648,120.29741379310346,119.43371811816472C120.93390804597702,119.09217314851296,121.57040229885058,117.0309544369195,122.20689655172414,115.81051944613228C122.8433908045977,114.59008445534505,123.47988505747126,113.13604322854349,124.11637931034483,112.11110817344138C124.75287356321839,111.08617311833926,125.38936781609196,110.17593512865544,126.02586206896552,109.6609091155196C126.66235632183908,109.14588310238378,127.29885057471265,108.88837009581586,127.9353448275862,108.88837009581586C128.57183908045977,108.88837009581586,129.20833333333331,112.25887470134823,129.8448275862069,112.25887470134823C130.48132183908046,112.25887470134823,131.117816091954,111.97277539433588,131.7543103448276,111.40057678031117C132.39080459770116,110.82837816628646,133.0272988505747,108.66962807143553,133.66379310344828,107.26360450086679C134.30028735632186,105.85758093029806,134.9367816091954,102.96443535689875,135.57327586206898,102.96443535689875C136.20977011494253,102.96443535689875,136.8462643678161,104.09658891280871,137.48275862068965,104.09658891280871C138.11925287356323,104.09658891280871,138.75574712643677,99.82645564974457,139.39224137931035,99.31287475868C140.02873563218392,98.79929386761542,140.66522988505747,98.54250342208313,141.30172413793105,98.54250342208313C141.9382183908046,98.54250342208313,142.57471264367817,103.30766001515411,143.21120689655172,103.30766001515411C143.8477011494253,103.30766001515411,144.48419540229884,99.53700007512506,145.1206896551724,99.22777518251822C145.757183908046,98.91855028991137,146.39367816091954,99.0731627362148,147.0301724137931,98.76393784360795C147.66666666666669,98.4547129510011,148.30316091954023,97.65718358576073,148.9396551724138,97.21211640916526C149.57614942528735,96.76704923256979,150.21264367816093,96.09353478403511,150.84913793103448,96.09353478403511C151.48563218390805,96.09353478403511,152.1221264367816,97.86545384480233,152.75862068965517,97.93855819231783C153.39511494252875,98.01166253983332,154.0316091954023,97.97511036607557,154.66810344827587,98.04821471359107C155.30459770114945,98.12131906110656,155.941091954023,106.21223420565248,156.57758620689657,108.73842798562676C157.21408045977012,111.264621765601,157.8505747126437,112.48394347622569,158.48706896551724,113.20537739343673C159.1235632183908,113.92681131064779,159.76005747126436,114.28752826925331,160.39655172413794,114.28752826925331C161.0330459770115,114.28752826925331,161.66954022988506,113.44704595015737,162.30603448275863,113.44704595015737C162.94252873563218,113.44704595015737,163.57902298850576,118.42412308528958,164.2155172413793,119.56556891204812C164.85201149425288,120.70701473880668,165.48850574712642,121.27773765218596,166.125,121.27773765218596C166.76149425287358,121.27773765218596,167.39798850574712,116.23953073287893,168.0344827586207,115.35041456267822C168.67097701149427,114.46129839247752,169.30747126436782,114.90585647757787,169.9439655172414,114.01674030737716C170.58045977011494,113.12762413717647,171.21695402298852,109.37104302073787,171.85344827586206,106.95698405629267C172.48994252873564,104.54292509184744,173.1264367816092,101.6611344701148,173.76293103448276,99.53238652070584C174.39942528735634,97.40363857129688,175.03591954022988,95.41880510412379,175.67241379310346,94.18449635983893C176.30890804597703,92.95018761555407,176.94540229885058,92.89122522643568,177.58189655172416,92.12653405499668C178.2183908045977,91.3618428835577,178.85488505747128,89.76614213190994,179.49137931034483,89.59634933120499C180.1278735632184,89.42655653050002,180.76436781609195,89.44234869949918,181.40086206896552,89.34166013014755C182.0373563218391,89.24097156079591,182.67385057471265,89.22517939179677,183.31034482758622,88.99221791509522C183.94683908045977,88.75925643839368,184.58333333333334,88.05625643089311,185.2198275862069,87.48489621163577C185.85632183908046,86.91353599237841,186.492816091954,85.56405659955114,187.1293103448276,85.56405659955114C187.76580459770116,85.56405659955114,188.4022988505747,85.99450438834552,189.03879310344828,86.16148977546376C189.67528735632186,86.32847516258201,190.3117816091954,86.33365768913404,190.94827586206898,86.56596892226062C191.58477011494253,86.79828015538719,192.2212643678161,87.55535717422319,192.85775862068965,87.55535717422319C193.49425287356323,87.55535717422319,194.13074712643677,83.8679916430244,194.76724137931035,82.98354500885885C195.40373563218392,82.09909837469331,196.04022988505747,82.54132169177609,196.67672413793105,81.65687505761055C197.31321839080462,80.772428423445,197.94971264367817,78.94708659969548,198.58620689655174,77.62638577138556C199.2227011494253,76.30568494307566,199.85919540229887,73.73267008775107,200.4956896551724,73.73267008775107C201.132183908046,73.73267008775107,201.76867816091954,76.76223049536566,202.4051724137931,76.76223049536566C203.04166666666669,76.76223049536566,203.67816091954023,76.36017031886068,204.3146551724138,75.55604996585072C204.95114942528735,74.75192961284077,205.58764367816093,72.81236077999593,206.22413793103448,71.85985253072776C206.86063218390805,70.90734428145959,207.4971264367816,69.84100047024172,208.13362068965517,69.84100047024172C208.77011494252875,69.84100047024172,209.4066091954023,72.08987349451327,210.04310344827587,72.08987349451327C210.67959770114945,72.08987349451327,211.316091954023,63.80955363355623,211.95258620689657,63.80955363355623C212.58908045977012,63.80955363355623,213.2255747126437,64.4971844401545,213.86206896551724,64.4971844401545C214.4985632183908,64.4971844401545,215.13505747126436,62.12192206085605,215.77155172413794,62.12192206085605C216.4080459770115,62.12192206085605,217.04454022988506,62.63298162501681,217.68103448275863,63.65510075333833C218.3175287356322,64.67721988165985,218.95402298850576,68.37186860395678,219.59051724137933,68.37186860395678C220.22701149425288,68.37186860395678,220.86350574712645,68.32379459191918,221.5,68.22764656784399C222.13649425287358,68.1314985437688,222.77298850574712,62.74626419750014,223.4094827586207,60.06576632719931C224.04597701149427,57.38526845689849,224.68247126436782,52.14465934603905,225.3189655172414,52.14465934603905C225.95545977011494,52.14465934603905,226.59195402298852,52.1952468275009,227.22844827586206,52.29642179042461C227.86494252873564,52.39759675334832,228.5014367816092,53.265618830387965,229.13793103448276,53.265618830387965C229.77442528735634,53.265618830387965,230.41091954022988,43.10171016795697,231.04741379310346,43.10171016795697C231.68390804597703,43.10171016795697,232.32040229885058,50.46381466954667,232.95689655172416,50.46381466954667C233.5933908045977,50.46381466954667,234.22988505747128,39.99191268253562,234.86637931034483,39.99191268253562C235.5028735632184,39.99191268253562,236.13936781609195,44.65327935450661,236.77586206896552,44.65327935450661C237.4123563218391,44.65327935450661,238.04885057471265,41.495536421444385,238.68534482758622,41.495536421444385C239.3218390804598,41.495536421444385,239.95833333333334,45.17590610945134,240.59482758620692,46.315331773761535C241.23132183908046,47.45475743807172,241.86781609195404,46.987584651609545,242.5043103448276,48.332090407305564C243.14080459770116,49.676596163001605,243.7772988505747,54.05749826353107,244.41379310344828,56.04209276321866C245.05028735632186,58.02668726290625,245.6867816091954,60.23965740543111,246.32327586206898,60.23965740543111C246.95977011494253,60.23965740543111,247.5962643678161,55.396998696104305,248.23275862068965,55.396998696104305C248.86925287356323,55.396998696104305,249.50574712643677,55.56747855151082,250.14224137931035,55.90843826232384C250.77873563218392,56.249397973136865,251.41522988505747,57.64868842900335,252.05172413793105,57.64868842900335C252.68821839080462,57.64868842900335,253.32471264367817,56.35796883733238,253.96120689655174,55.78559949286401C254.5977011494253,55.213230148395645,255.23419540229887,54.214472362193135,255.8706896551724,54.214472362193135C256.507183908046,54.214472362193135,257.14367816091954,54.74616963056972,257.78017241379314,55.809564167322876C258.4166666666667,56.87295870407599,259.05316091954023,78.77203423256684,259.6896551724138,78.77203423256684C260.3261494252873,78.77203423256684,260.96264367816093,78.43412852778326,261.5991379310345,77.75831711821608C262.235632183908,77.08250570864891,262.8721264367816,74.21089815067356,263.5086206896552,74.21089815067356C264.1451149425287,74.21089815067356,264.7816091954023,78.91617457990095,265.4181034482759,78.91617457990095C266.0545977011494,78.91617457990095,266.691091954023,78.28394156236438,267.32758620689657,77.57048055395241C267.9640804597701,76.85701954554044,268.6005747126437,74.63540852942914,269.23706896551727,74.63540852942914C269.8735632183908,74.63540852942914,270.5100574712644,78.55647700795211,271.14655172413796,78.55647700795211C271.7830459770115,78.55647700795211,272.41954022988506,71.99741523576584,273.0560344827586,69.38408920046601C273.69252873563215,66.7707631651661,274.32902298850576,62.87652079615298,274.9655172413793,62.87652079615298C275.60201149425285,62.87652079615298,276.23850574712645,63.3671537491165,276.875,64.34841965504353C277.51149425287355,65.32968556097056,278.14798850574715,69.77335805980061,278.7844827586207,69.77335805980061C279.42097701149424,69.77335805980061,280.05747126436785,68.04730005088723,280.6939655172414,68.04730005088723C281.33045977011494,68.04730005088723,281.96695402298855,68.16512849773946,282.6034482758621,68.4007853914439C283.23994252873564,68.63644228514835,283.87643678160924,81.49696862454098,284.5129310344828,85.33748199699338C285.14942528735634,89.17799536944565,285.7859195402299,91.44386562615824,286.42241379310343,91.44386562615824C287.058908045977,91.44386562615824,287.6954022988506,83.29413644745775,288.3318965517241,81.47511149109681C288.9683908045977,79.65608653473588,289.6048850574713,78.74657405655542,290.2413793103448,78.74657405655542C290.8778735632184,78.74657405655542,291.514367816092,85.25138826951385,292.1508620689655,85.25138826951385C292.78735632183907,85.25138826951385,293.4238505747127,85.2312984466115,294.0603448275862,85.2312984466115C294.69683908045977,85.2312984466115,295.33333333333337,85.8708029027495,295.9698275862069,85.97835052261074C296.60632183908046,86.08589814247198,297.24281609195407,86.03212433254136,297.8793103448276,86.1396719524026C298.51580459770116,86.24721957226383,299.15229885057477,86.3012187447951,299.7887931034483,86.62431232958008C300.42528735632186,86.94740591436506,301.0617816091954,87.95902187980063,301.69827586206895,88.93971238479438C302.3347701149425,89.92040288978815,302.9712643678161,92.50845535954271,303.60775862068965,92.50845535954271C304.2442528735632,92.50845535954271,304.8807471264368,85.55554221710437,305.51724137931035,85.31089210089644C306.1537356321839,85.0662419846885,306.7902298850575,84.94391692658454,307.42672413793105,84.94391692658454C308.0632183908046,84.94391692658454,308.6997126436782,85.4120980173244,309.33620689655174,85.48405129505382C309.9727011494253,85.55600457278324,310.6091954022989,85.59198121164795,311.24568965517244,85.59198121164795C311.882183908046,85.59198121164795,312.5186781609196,82.38042566630628,313.15517241379314,82.38042566630628C313.7916666666667,82.38042566630628,314.42816091954023,83.200744886379,315.0646551724138,83.45574755332218C315.7011494252873,83.71075022026537,316.33764367816093,83.91044166796536,316.9741379310345,83.91044166796536C317.610632183908,83.91044166796536,318.2471264367816,77.94815207627623,318.8836206896552,75.81344882490255C319.5201149425287,73.67874557352887,320.1566091954023,71.1022221597233,320.7931034482759,71.1022221597233C321.4295977011494,71.1022221597233,322.066091954023,75.1468062641833,322.70258620689657,75.1468062641833C323.3390804597701,75.1468062641833,323.9755747126437,73.91073496639414,324.61206896551727,72.46094487445382C325.2485632183908,71.01115478251349,325.8850574712644,66.44806571254131,326.52155172413796,66.44806571254131C327.1580459770115,66.44806571254131,327.79454022988506,70.10350949510368,328.4310344827586,71.50239318963557C329.06752873563215,72.9012768841675,329.70402298850576,74.84136787973269,330.3405172413793,74.84136787973269C330.97701149425285,74.84136787973269,331.61350574712645,73.7196118807629,332.25,73.7196118807629C332.88649425287355,73.7196118807629,333.52298850574715,76.04956846255936,334.1594827586207,76.04956846255936C334.79597701149424,76.04956846255936,335.43247126436785,75.9552841110028,336.0689655172414,75.76671540788966C336.70545977011494,75.57814670477653,337.34195402298855,74.56119518221813,337.9784482758621,74.14348974628976C338.61494252873564,73.72578431036139,339.25143678160924,73.84915409496634,339.8879310344828,73.2604827923195C340.52442528735634,72.67181148967265,341.16091954022994,71.59973392979109,341.7974137931035,70.52763857394754C342.43390804597703,69.45554321810403,343.0704022988506,68.1757782342643,343.7068965517241,66.82791065725833C344.3433908045977,65.48004308025233,344.9798850574713,63.42356833100307,345.6163793103448,62.4404331119116C346.2528735632184,61.45729789282014,346.889367816092,60.92909934270953,347.5258620689655,60.92909934270953C348.16235632183907,60.92909934270953,348.7988505747127,62.82296137532766,349.4353448275862,62.82296137532766C350.07183908045977,62.82296137532766,350.70833333333337,61.09786472756833,351.3448275862069,60.27041128491331C351.98132183908046,59.44295784225829,352.61781609195407,57.858240719397536,353.2543103448276,57.858240719397536C353.89080459770116,57.858240719397536,354.52729885057477,68.22805203173922,355.1637931034483,68.22805203173922C355.80028735632186,68.22805203173922,356.4367816091954,64.95736706515017,357.07327586206895,62.92998527402691C357.7097701149425,60.9026034829036,358.3462643678161,56.06376128499948,358.98275862068965,56.06376128499948C359.6192528735632,56.06376128499948,360.2557471264368,57.67522798002368,360.89224137931035,58.30220301374579C361.5287356321839,58.9291780474679,362.1652298850575,59.82561148733216,362.80172413793105,59.82561148733216C363.4382183908046,59.82561148733216,364.0747126436782,57.33320680427966,364.71120689655174,56.45408797704911C365.3477011494253,55.574969149818564,365.9841954022989,55.41661983880501,366.62068965517244,54.55089852394887C367.257183908046,53.68517720909272,367.8936781609196,51.25976008791225,368.53017241379314,51.25976008791225C369.1666666666667,51.25976008791225,369.80316091954023,51.35386821501144,370.4396551724138,51.35386821501144C371.0761494252873,51.35386821501144,371.71264367816093,46.645947691684746,372.3491379310345,45.171134814041835C372.985632183908,43.696321936398924,373.6221264367816,43.29404624151095,374.2586206896552,42.50499094915398C374.8951149425287,41.71593565679701,375.5316091954023,41.13550508225601,376.1681034482759,40.4368030599C376.8045977011494,39.73810103754399,377.441091954023,38.312778815017936,378.07758620689657,38.312778815017936C378.7140804597701,38.312778815017936,379.3505747126437,41.109182739043035,379.98706896551727,42.62009194159781C380.6235632183908,44.13100114415259,381.2600574712644,47.37823403034659,381.89655172413796,47.37823403034659C382.5330459770115,47.37823403034659,383.1695402298851,43.44320379668303,383.80603448275866,43.44320379668303C384.4425287356322,43.44320379668303,385.07902298850576,43.97856102411163,385.7155172413793,43.97856102411163C386.35201149425285,43.97856102411163,386.98850574712645,40.15494208080902,387.625,39.32049061103357C388.26149425287355,38.48603914125812,388.89798850574715,38.068813406370396,389.5344827586207,38.068813406370396C390.17097701149424,38.068813406370396,390.80747126436785,39.83727298176214,391.4439655172414,41.68902767148317C392.08045977011494,43.540782361204194,392.71695402298855,49.179341544696534,393.3534482758621,49.179341544696534C393.98994252873564,49.179341544696534,394.62643678160924,48.18199895737975,395.2629310344828,48.18199895737975C395.89942528735634,48.18199895737975,396.53591954022994,57.278377707197265,397.1724137931035,57.278377707197265C397.80890804597703,57.278377707197265,398.4454022988506,48.89479040626214,399.0818965517241,46.09948622212439C399.7183908045977,43.30418203798656,400.3548850574713,40.506552602370675,400.9913793103448,40.506552602370675C401.6278735632184,40.506552602370675,402.264367816092,43.958458844396816,402.9008620689655,45.65555565338864C403.53735632183907,47.35265246238046,404.1738505747127,50.689133456321635,404.8103448275862,50.689133456321635C405.44683908045977,50.689133456321635,406.08333333333337,42.634923833016416,406.7198275862069,42.634923833016416C407.35632183908046,42.634923833016416,407.99281609195407,43.58808483155369,408.6293103448276,43.58808483155369C409.26580459770116,43.58808483155369,409.90229885057477,34.6150445380614,410.5387931034483,34.6150445380614C411.17528735632186,34.6150445380614,411.8117816091954,49.014999563421654,412.44827586206895,49.014999563421654C413.0847701149425,49.014999563421654,413.7212643678161,47.312362653567746,414.35775862068965,46.37647640624214C414.9942528735632,45.440590158916535,415.6307471264368,44.518406318630646,416.26724137931035,43.399682079468C416.9037356321839,42.280957840305355,417.5402298850575,40.30124422584311,418.17672413793105,39.66413097126627C418.8132183908046,39.02701771668943,419.4497126436782,38.708461089401005,420.08620689655174,38.708461089401005C420.7227011494253,38.708461089401005,421.3591954022989,39.02070314420963,421.99568965517244,39.19066679803707C422.632183908046,39.360630451864516,423.2686781609196,39.36985886947994,423.90517241379314,39.72824301236569C424.5416666666667,40.086627155251435,425.1781609195403,42.8947900784101,425.81465517241384,45.73590957863682C426.4511494252874,48.57702907886346,427.08764367816093,55.602944590142876,427.7241379310345,56.774960013725625C428.360632183908,57.94697543730841,428.9971264367816,58.532983149099806,429.6336206896552,58.532983149099806C430.2701149425287,58.532983149099806,430.9066091954023,58.04120493540106,431.5431034482759,58.04120493540106C432.1795977011494,58.04120493540106,432.816091954023,61.10368718394324,433.45258620689657,61.10368718394324C434.0890804597701,61.10368718394324,434.7255747126437,57.0340590272568,435.36206896551727,57.0340590272568C435.9985632183908,57.0340590272568,436.6350574712644,63.972698176757945,437.27155172413796,66.1358633106881C437.9080459770115,68.29902844461824,438.5445402298851,70.01304983083772,439.18103448275866,70.01304983083772C439.8175287356322,70.01304983083772,440.45402298850576,67.19233397511302,441.0905172413793,67.19233397511302C441.72701149425285,67.19233397511302,442.36350574712645,67.29528216053126,443,67.39823034594951"/></g></g></g></g></svg>