<svg xmlns="http://www.w3.org/2000/svg" class="recharts-surface" viewBox="0 0 518 250" version="1.1"><defs><clipPath id="recharts15-clip"><rect x="0" y="5" height="210" width="443"/></clipPath></defs><g class="recharts-layer recharts-cartesian-axis recharts-xAxis xAxis"><g class="recharts-cartesian-axis-ticks"><g class="recharts-layer recharts-cartesian-axis-tick"><text orientation="bottom" width="443" height="30" type="category" x="21.86480686695279" y="223" stroke="none" fill="#666" class="recharts-text recharts-cartesian-axis-tick-value" text-anchor="middle"><tspan x="21.86480686695279" dy="0.71em">05</tspan></text></g><g class="recharts-layer recharts-cartesian-axis-tick"><text orientation="bottom" width="443" height="30" type="category" x="48.48283261802575" y="223" stroke="none" fill="#666" class="recharts-text recharts-cartesian-axis-tick-value" text-anchor="middle"><tspan x="48.48283261802575" dy="0.71em">19</tspan></text></g><g class="recharts-layer recharts-cartesian-axis-tick"><text orientation="bottom" width="443" height="30" type="category" x="73.19957081545064" y="223" stroke="none" fill="#666" class="recharts-text recharts-cartesian-axis-tick-value" text-anchor="middle"><tspan x="73.19957081545064" dy="0.71em">01</tspan></text></g><g class="recharts-layer recharts-cartesian-axis-tick"><text orientation="bottom" width="443" height="30" type="category" x="97.91630901287554" y="223" stroke="none" fill="#666" class="recharts-text recharts-cartesian-axis-tick-value" text-anchor="middle"><tspan x="97.91630901287554" dy="0.71em">14</tspan></text></g><g class="recharts-layer recharts-cartesian-axis-tick"><text orientation="bottom" width="443" height="30" type="category" x="124.53433476394851" y="223" stroke="none" fill="#666" class="recharts-text recharts-cartesian-axis-tick-value" text-anchor="middle"><tspan x="124.53433476394851" dy="0.71em">28</tspan></text></g><g class="recharts-layer recharts-cartesian-axis-tick"><text orientation="bottom" width="443" height="30" type="category" x="149.25107296137338" y="223" stroke="none" fill="#666" class="recharts-text recharts-cartesian-axis-tick-value" text-anchor="middle"><tspan x="149.25107296137338" dy="0.71em">11</tspan></text></g><g class="recharts-layer recharts-cartesian-axis-tick"><text orientation="bottom" width="443" height="30" type="category" x="173.96781115879827" y="223" stroke="none" fill="#666" class="recharts-text recharts-cartesian-axis-tick-value" text-anchor="middle"><tspan x="173.96781115879827" dy="0.71em">24</tspan></text></g><g class="recharts-layer recharts-cartesian-axis-tick"><text orientation="bottom" width="443" height="30" type="category" x="202.4871244635193" y="223" stroke="none" fill="#666" class="recharts-text recharts-cartesian-axis-tick-value" text-anchor="middle"><tspan x="202.4871244635193" dy="0.71em">08</tspan></text></g><g class="recharts-layer recharts-cartesian-axis-tick"><text orientation="bottom" width="443" height="30" type="category" x="231.00643776824035" y="223" stroke="none" fill="#666" class="recharts-text recharts-cartesian-axis-tick-value" text-anchor="middle"><tspan x="231.00643776824035" dy="0.71em">23</tspan></text></g><g class="recharts-layer recharts-cartesian-axis-tick"><text orientation="bottom" width="443" height="30" type="category" x="259.5257510729614" y="223" stroke="none" fill="#666" class="recharts-text recharts-cartesian-axis-tick-value" text-anchor="middle"><tspan x="259.5257510729614" dy="0.71em">07</tspan></text></g><g class="recharts-layer recharts-cartesian-axis-tick"><text orientation="bottom" width="443" height="30" type="category" x="286.1437768240344" y="223" stroke="none" fill="#666" class="recharts-text recharts-cartesian-axis-tick-value" text-anchor="middle"><tspan x="286.1437768240344" dy="0.71em">21</tspan></text></g><g class="recharts-layer recharts-cartesian-axis-tick"><text orientation="bottom" width="443" height="30" type="category" x="312.7618025751073" y="223" stroke="none" fill="#666" class="recharts-text recharts-cartesian-axis-tick-value" text-anchor="middle"><tspan x="312.7618025751073" dy="0.71em">05</tspan></text></g><g class="recharts-layer recharts-cartesian-axis-tick"><text orientation="bottom" width="443" height="30" type="category" x="339.3798283261803" y="223" stroke="none" fill="#666" class="recharts-text recharts-cartesian-axis-tick-value" text-anchor="middle"><tspan x="339.3798283261803" dy="0.71em">19</tspan></text></g><g class="recharts-layer recharts-cartesian-axis-tick"><text orientation="bottom" width="443" height="30" type="category" x="364.0965665236052" y="223" stroke="none" fill="#666" class="recharts-text recharts-cartesian-axis-tick-value" text-anchor="middle"><tspan x="364.0965665236052" dy="0.71em">01</tspan></text></g><g class="recharts-layer recharts-cartesian-axis-tick"><text orientation="bottom" width="443" height="30" type="category" x="388.8133047210301" y="223" stroke="none" fill="#666" class="recharts-text recharts-cartesian-axis-tick-value" text-anchor="middle"><tspan x="388.8133047210301" dy="0.71em">14</tspan></text></g><g class="recharts-layer recharts-cartesian-axis-tick"><text orientation="bottom" width="443" height="30" type="category" x="415.431330472103" y="223" stroke="none" fill="#666" class="recharts-text recharts-cartesian-axis-tick-value" text-anchor="middle"><tspan x="415.431330472103" dy="0.71em">28</tspan></text></g><g class="recharts-layer recharts-cartesian-axis-tick"><text orientation="bottom" width="443" height="30" type="category" x="442.049356223176" y="223" stroke="none" fill="#666" class="recharts-text recharts-cartesian-axis-tick-value" text-anchor="middle"><tspan x="442.049356223176" dy="0.71em">12</tspan></text></g></g></g><g class="recharts-layer recharts-cartesian-axis recharts-yAxis yAxis"><g class="recharts-cartesian-axis-ticks"><g class="recharts-layer recharts-cartesian-axis-tick"><text color="#7A6EAA" font-size="12px" orientation="right" width="60" height="210" type="number" x="461" y="215" stroke="none" fill="#7A6EAA" class="recharts-text recharts-cartesian-axis-tick-value" text-anchor="start"><tspan x="461" dy="0.355em">$0.00</tspan></text></g><g class="recharts-layer recharts-cartesian-axis-tick"><text color="#7A6EAA" font-size="12px" orientation="right" width="60" height="210" type="number" x="461" y="183.4949454399609" stroke="none" fill="#7A6EAA" class="recharts-text recharts-cartesian-axis-tick-value" text-anchor="start"><tspan x="461" dy="0.355em">$1.00B</tspan></text></g><g class="recharts-layer recharts-cartesian-axis-tick"><text color="#7A6EAA" font-size="12px" orientation="right" width="60" height="210" type="number" x="461" y="151.9898908799218" stroke="none" fill="#7A6EAA" class="recharts-text recharts-cartesian-axis-tick-value" text-anchor="start"><tspan x="461" dy="0.355em">$2.00B</tspan></text></g><g class="recharts-layer recharts-cartesian-axis-tick"><text color="#7A6EAA" font-size="12px" orientation="right" width="60" height="210" type="number" x="461" y="120.48483631988269" stroke="none" fill="#7A6EAA" class="recharts-text recharts-cartesian-axis-tick-value" text-anchor="start"><tspan x="461" dy="0.355em">$3.00B</tspan></text></g><g class="recharts-layer recharts-cartesian-axis-tick"><text color="#7A6EAA" font-size="12px" orientation="right" width="60" height="210" type="number" x="461" y="88.97978175984359" stroke="none" fill="#7A6EAA" class="recharts-text recharts-cartesian-axis-tick-value" text-anchor="start"><tspan x="461" dy="0.355em">$4.00B</tspan></text></g><g class="recharts-layer recharts-cartesian-axis-tick"><text color="#7A6EAA" font-size="12px" orientation="right" width="60" height="210" type="number" x="461" y="57.4747271998045" stroke="none" fill="#7A6EAA" class="recharts-text recharts-cartesian-axis-tick-value" text-anchor="start"><tspan x="461" dy="0.355em">$5.00B</tspan></text></g><g class="recharts-layer recharts-cartesian-axis-tick"><text color="#7A6EAA" font-size="12px" orientation="right" width="60" height="210" type="number" x="461" y="25.9696726397654" stroke="none" fill="#7A6EAA" class="recharts-text recharts-cartesian-axis-tick-value" text-anchor="start"><tspan x="461" dy="0.355em">$6.00B</tspan></text></g></g></g><g class="recharts-layer recharts-bar"><g class="recharts-layer recharts-bar-rectangles"><g class="recharts-layer"><g class="recharts-layer recharts-bar-rectangle"><g><rect x="0.19012875536480686" y="199.13573918997412" fill="#1FC7D4" width="1" height="15.864260810025883" rx="2"/></g></g><g class="recharts-layer recharts-bar-rectangle"><g><rect x="2.0914163090128755" y="188.43970695893958" fill="#1FC7D4" width="1" height="26.56029304106042" rx="2"/></g></g><g class="recharts-layer recharts-bar-rectangle"><g><rect x="3.992703862660944" y="178.75153407618723" fill="#1FC7D4" width="1" height="36.24846592381277" rx="2"/></g></g><g class="recharts-layer recharts-bar-rectangle"><g><rect x="5.893991416309013" y="172.8408359401925" fill="#1FC7D4" width="1" height="42.159164059807495" rx="2"/></g></g><g class="recharts-layer recharts-bar-rectangle"><g><rect x="7.7952789699570815" y="182.31684441736434" fill="#1FC7D4" width="1" height="32.68315558263566" rx="2"/></g></g><g class="recharts-layer recharts-bar-rectangle"><g><rect x="9.69656652360515" y="164.21314649974417" fill="#1FC7D4" width="1" height="50.78685350025583" rx="2"/></g></g><g class="recharts-layer recharts-bar-rectangle"><g><rect x="11.597854077253219" y="170.7216965477116" fill="#1FC7D4" width="1" height="44.27830345228841" rx="2"/></g></g><g class="recharts-layer recharts-bar-rectangle"><g><rect x="13.499141630901288" y="171.90178616101028" fill="#1FC7D4" width="1" height="43.09821383898972" rx="2"/></g></g><g class="recharts-layer recharts-bar-rectangle"><g><rect x="15.400429184549356" y="173.52009825597472" fill="#1FC7D4" width="1" height="41.479901744025284" rx="2"/></g></g><g class="recharts-layer recharts-bar-rectangle"><g><rect x="17.301716738197424" y="165.02179145783253" fill="#1FC7D4" width="1" height="49.978208542167465" rx="2"/></g></g><g class="recharts-layer recharts-bar-rectangle"><g><rect x="19.20300429184549" y="163.3570385149386" fill="#1FC7D4" width="1" height="51.64296148506139" rx="2"/></g></g><g class="recharts-layer recharts-bar-rectangle"><g><rect x="21.104291845493563" y="177.27313389932985" fill="#1FC7D4" width="1" height="37.72686610067015" rx="2"/></g></g><g class="recharts-layer recharts-bar-rectangle"><g><rect x="23.00557939914163" y="170.6078191570522" fill="#1FC7D4" width="1" height="44.392180842947795" rx="2"/></g></g><g class="recharts-layer recharts-bar-rectangle"><g><rect x="24.9068669527897" y="100.93063117462314" fill="#1FC7D4" width="1" height="114.06936882537686" rx="2"/></g></g><g class="recharts-layer recharts-bar-rectangle"><g><rect x="26.80815450643777" y="173.09168392032953" fill="#1FC7D4" width="1" height="41.90831607967047" rx="2"/></g></g><g class="recharts-layer recharts-bar-rectangle"><g><rect x="28.709442060085838" y="165.89483274324158" fill="#1FC7D4" width="1" height="49.10516725675842" rx="2"/></g></g><g class="recharts-layer recharts-bar-rectangle"><g><rect x="30.610729613733906" y="158.57890196079978" fill="#1FC7D4" width="1" height="56.42109803920022" rx="2"/></g></g><g class="recharts-layer recharts-bar-rectangle"><g><rect x="32.51201716738198" y="145.75787137245354" fill="#1FC7D4" width="1" height="69.24212862754646" rx="2"/></g></g><g class="recharts-layer recharts-bar-rectangle"><g><rect x="34.413304721030045" y="135.49470102398024" fill="#1FC7D4" width="1" height="79.50529897601976" rx="2"/></g></g><g class="recharts-layer recharts-bar-rectangle"><g><rect x="36.31459227467811" y="123.99554947478673" fill="#1FC7D4" width="1" height="91.00445052521327" rx="2"/></g></g><g class="recharts-layer recharts-bar-rectangle"><g><rect x="38.21587982832618" y="154.61067112603385" fill="#1FC7D4" width="1" height="60.38932887396615" rx="2"/></g></g><g class="recharts-layer recharts-bar-rectangle"><g><rect x="40.117167381974255" y="149.3874318615853" fill="#1FC7D4" width="1" height="65.6125681384147" rx="2"/></g></g><g class="recharts-layer recharts-bar-rectangle"><g><rect x="42.01845493562232" y="157.45387029124973" fill="#1FC7D4" width="1" height="57.54612970875027" rx="2"/></g></g><g class="recharts-layer recharts-bar-rectangle"><g><rect x="43.91974248927039" y="147.61737074984367" fill="#1FC7D4" width="1" height="67.38262925015633" rx="2"/></g></g><g class="recharts-layer recharts-bar-rectangle"><g><rect x="45.82103004291846" y="144.74844194721774" fill="#1FC7D4" width="1" height="70.25155805278226" rx="2"/></g></g><g class="recharts-layer recharts-bar-rectangle"><g><rect x="47.722317596566526" y="5" fill="#1FC7D4" width="1" height="210" rx="2"/></g></g><g class="recharts-layer recharts-bar-rectangle"><g><rect x="49.623605150214594" y="62.78520399730286" fill="#1FC7D4" width="1" height="152.21479600269714" rx="2"/></g></g><g class="recharts-layer recharts-bar-rectangle"><g><rect x="51.52489270386266" y="117.05285522578147" fill="#1FC7D4" width="1" height="97.94714477421853" rx="2"/></g></g><g class="recharts-layer recharts-bar-rectangle"><g><rect x="53.42618025751074" y="170.87088319551327" fill="#1FC7D4" width="1" height="44.12911680448673" rx="2"/></g></g><g class="recharts-layer recharts-bar-rectangle"><g><rect x="55.327467811158805" y="150.9701496140825" fill="#1FC7D4" width="1" height="64.02985038591751" rx="2"/></g></g><g class="recharts-layer recharts-bar-rectangle"><g><rect x="57.22875536480687" y="163.35544038941413" fill="#1FC7D4" width="1" height="51.64455961058587" rx="2"/></g></g><g class="recharts-layer recharts-bar-rectangle"><g><rect x="59.13004291845494" y="171.4927443781344" fill="#1FC7D4" width="1" height="43.507255621865596" rx="2"/></g></g><g class="recharts-layer recharts-bar-rectangle"><g><rect x="61.03133047210301" y="178.31165898282353" fill="#1FC7D4" width="1" height="36.68834101717647" rx="2"/></g></g><g class="recharts-layer recharts-bar-rectangle"><g><rect x="62.932618025751076" y="175.36174504672798" fill="#1FC7D4" width="1" height="39.638254953272025" rx="2"/></g></g><g class="recharts-layer recharts-bar-rectangle"><g><rect x="64.83390557939914" y="179.88053243918822" fill="#1FC7D4" width="1" height="35.119467560811785" rx="2"/></g></g><g class="recharts-layer recharts-bar-rectangle"><g><rect x="66.73519313304722" y="72.67310783900166" fill="#1FC7D4" width="1" height="142.32689216099834" rx="2"/></g></g><g class="recharts-layer recharts-bar-rectangle"><g><rect x="68.63648068669528" y="192.58685788605814" fill="#1FC7D4" width="1" height="22.41314211394186" rx="2"/></g></g><g class="recharts-layer recharts-bar-rectangle"><g><rect x="70.53776824034335" y="190.95364643801196" fill="#1FC7D4" width="1" height="24.04635356198804" rx="2"/></g></g><g class="recharts-layer recharts-bar-rectangle"><g><rect x="72.43905579399141" y="188.74776539453225" fill="#1FC7D4" width="1" height="26.25223460546775" rx="2"/></g></g><g class="recharts-layer recharts-bar-rectangle"><g><rect x="74.34034334763949" y="185.96658082824925" fill="#1FC7D4" width="1" height="29.03341917175075" rx="2"/></g></g><g class="recharts-layer recharts-bar-rectangle"><g><rect x="76.24163090128755" y="190.02903187264724" fill="#1FC7D4" width="1" height="24.970968127352762" rx="2"/></g></g><g class="recharts-layer recharts-bar-rectangle"><g><rect x="78.14291845493563" y="183.85514830846822" fill="#1FC7D4" width="1" height="31.144851691531784" rx="2"/></g></g><g class="recharts-layer recharts-bar-rectangle"><g><rect x="80.0442060085837" y="189.70734678153795" fill="#1FC7D4" width="1" height="25.29265321846205" rx="2"/></g></g><g class="recharts-layer recharts-bar-rectangle"><g><rect x="81.94549356223176" y="198.2864885601157" fill="#1FC7D4" width="1" height="16.713511439884286" rx="2"/></g></g><g class="recharts-layer recharts-bar-rectangle"><g><rect x="83.84678111587984" y="190.96351369339772" fill="#1FC7D4" width="1" height="24.036486306602285" rx="2"/></g></g><g class="recharts-layer recharts-bar-rectangle"><g><rect x="85.7480686695279" y="187.00175844981038" fill="#1FC7D4" width="1" height="27.99824155018962" rx="2"/></g></g><g class="recharts-layer recharts-bar-rectangle"><g><rect x="87.64935622317597" y="194.5457928238539" fill="#1FC7D4" width="1" height="20.4542071761461" rx="2"/></g></g><g class="recharts-layer recharts-bar-rectangle"><g><rect x="89.55064377682403" y="195.41887414822523" fill="#1FC7D4" width="1" height="19.58112585177477" rx="2"/></g></g><g class="recharts-layer recharts-bar-rectangle"><g><rect x="91.4519313304721" y="195.41440251923814" fill="#1FC7D4" width="1" height="19.585597480761862" rx="2"/></g></g><g class="recharts-layer recharts-bar-rectangle"><g><rect x="93.35321888412018" y="196.21244603278868" fill="#1FC7D4" width="1" height="18.787553967211323" rx="2"/></g></g><g class="recharts-layer recharts-bar-rectangle"><g><rect x="95.25450643776824" y="198.53002780518608" fill="#1FC7D4" width="1" height="16.46997219481392" rx="2"/></g></g><g class="recharts-layer recharts-bar-rectangle"><g><rect x="97.15579399141632" y="196.1476615406449" fill="#1FC7D4" width="1" height="18.85233845935511" rx="2"/></g></g><g class="recharts-layer recharts-bar-rectangle"><g><rect x="99.05708154506438" y="197.40930086669684" fill="#1FC7D4" width="1" height="17.59069913330316" rx="2"/></g></g><g class="recharts-layer recharts-bar-rectangle"><g><rect x="100.95836909871245" y="196.42833994546757" fill="#1FC7D4" width="1" height="18.57166005453243" rx="2"/></g></g><g class="recharts-layer recharts-bar-rectangle"><g><rect x="102.85965665236051" y="197.72107672481977" fill="#1FC7D4" width="1" height="17.278923275180233" rx="2"/></g></g><g class="recharts-layer recharts-bar-rectangle"><g><rect x="104.76094420600859" y="197.74178221570114" fill="#1FC7D4" width="1" height="17.258217784298864" rx="2"/></g></g><g class="recharts-layer recharts-bar-rectangle"><g><rect x="106.66223175965666" y="202.0703862985831" fill="#1FC7D4" width="1" height="12.929613701416912" rx="2"/></g></g><g class="recharts-layer recharts-bar-rectangle"><g><rect x="108.56351931330472" y="199.90216045816766" fill="#1FC7D4" width="1" height="15.097839541832343" rx="2"/></g></g><g class="recharts-layer recharts-bar-rectangle"><g><rect x="110.4648068669528" y="185.23717992189827" fill="#1FC7D4" width="1" height="29.762820078101726" rx="2"/></g></g><g class="recharts-layer recharts-bar-rectangle"><g><rect x="112.36609442060086" y="176.82546423724037" fill="#1FC7D4" width="1" height="38.17453576275963" rx="2"/></g></g><g class="recharts-layer recharts-bar-rectangle"><g><rect x="114.26738197424893" y="195.7244825527926" fill="#1FC7D4" width="1" height="19.275517447207392" rx="2"/></g></g><g class="recharts-layer recharts-bar-rectangle"><g><rect x="116.168669527897" y="198.2177936784503" fill="#1FC7D4" width="1" height="16.782206321549694" rx="2"/></g></g><g class="recharts-layer recharts-bar-rectangle"><g><rect x="118.06995708154507" y="196.48143038134623" fill="#1FC7D4" width="1" height="18.51856961865377" rx="2"/></g></g><g class="recharts-layer recharts-bar-rectangle"><g><rect x="119.97124463519313" y="201.70656692027268" fill="#1FC7D4" width="1" height="13.293433079727322" rx="2"/></g></g><g class="recharts-layer recharts-bar-rectangle"><g><rect x="121.8725321888412" y="203.8826618765044" fill="#1FC7D4" width="1" height="11.117338123495614" rx="2"/></g></g><g class="recharts-layer recharts-bar-rectangle"><g><rect x="123.77381974248928" y="202.00357346364746" fill="#1FC7D4" width="1" height="12.996426536352544" rx="2"/></g></g><g class="recharts-layer recharts-bar-rectangle"><g><rect x="125.67510729613734" y="200.46724691559746" fill="#1FC7D4" width="1" height="14.532753084402543" rx="2"/></g></g><g class="recharts-layer recharts-bar-rectangle"><g><rect x="127.57639484978542" y="202.33321414285072" fill="#1FC7D4" width="1" height="12.666785857149279" rx="2"/></g></g><g class="recharts-layer recharts-bar-rectangle"><g><rect x="129.47768240343348" y="200.39909521462965" fill="#1FC7D4" width="1" height="14.600904785370346" rx="2"/></g></g><g class="recharts-layer recharts-bar-rectangle"><g><rect x="131.37896995708155" y="203.54332293147445" fill="#1FC7D4" width="1" height="11.45667706852555" rx="2"/></g></g><g class="recharts-layer recharts-bar-rectangle"><g><rect x="133.28025751072963" y="204.23481307155845" fill="#1FC7D4" width="1" height="10.765186928441551" rx="2"/></g></g><g class="recharts-layer recharts-bar-rectangle"><g><rect x="135.18154506437767" y="197.4528364623736" fill="#1FC7D4" width="1" height="17.547163537626403" rx="2"/></g></g><g class="recharts-layer recharts-bar-rectangle"><g><rect x="137.08283261802575" y="198.42283458809266" fill="#1FC7D4" width="1" height="16.577165411907345" rx="2"/></g></g><g class="recharts-layer recharts-bar-rectangle"><g><rect x="138.98412017167382" y="192.85281152298955" fill="#1FC7D4" width="1" height="22.147188477010445" rx="2"/></g></g><g class="recharts-layer recharts-bar-rectangle"><g><rect x="140.8854077253219" y="196.73229484152353" fill="#1FC7D4" width="1" height="18.267705158476474" rx="2"/></g></g><g class="recharts-layer recharts-bar-rectangle"><g><rect x="142.78669527896997" y="198.88338329325265" fill="#1FC7D4" width="1" height="16.11661670674735" rx="2"/></g></g><g class="recharts-layer recharts-bar-rectangle"><g><rect x="144.68798283261802" y="200.4127335368448" fill="#1FC7D4" width="1" height="14.587266463155203" rx="2"/></g></g><g class="recharts-layer recharts-bar-rectangle"><g><rect x="146.5892703862661" y="202.80765870774715" fill="#1FC7D4" width="1" height="12.192341292252848" rx="2"/></g></g><g class="recharts-layer recharts-bar-rectangle"><g><rect x="148.49055793991417" y="203.34375058395946" fill="#1FC7D4" width="1" height="11.656249416040538" rx="2"/></g></g><g class="recharts-layer recharts-bar-rectangle"><g><rect x="150.39184549356224" y="200.2322752845551" fill="#1FC7D4" width="1" height="14.7677247154449" rx="2"/></g></g><g class="recharts-layer recharts-bar-rectangle"><g><rect x="152.2931330472103" y="202.39727929170533" fill="#1FC7D4" width="1" height="12.602720708294669" rx="2"/></g></g><g class="recharts-layer recharts-bar-rectangle"><g><rect x="154.19442060085836" y="197.11346968409347" fill="#1FC7D4" width="1" height="17.886530315906526" rx="2"/></g></g><g class="recharts-layer recharts-bar-rectangle"><g><rect x="156.09570815450644" y="194.1920740272063" fill="#1FC7D4" width="1" height="20.807925972793697" rx="2"/></g></g><g class="recharts-layer recharts-bar-rectangle"><g><rect x="157.99699570815451" y="199.12070004972807" fill="#1FC7D4" width="1" height="15.879299950271928" rx="2"/></g></g><g class="recharts-layer recharts-bar-rectangle"><g><rect x="159.8982832618026" y="203.53010576431657" fill="#1FC7D4" width="1" height="11.469894235683427" rx="2"/></g></g><g class="recharts-layer recharts-bar-rectangle"><g><rect x="161.79957081545064" y="203.73443352321559" fill="#1FC7D4" width="1" height="11.265566476784414" rx="2"/></g></g><g class="recharts-layer recharts-bar-rectangle"><g><rect x="163.7008583690987" y="198.94552906541105" fill="#1FC7D4" width="1" height="16.05447093458895" rx="2"/></g></g><g class="recharts-layer recharts-bar-rectangle"><g><rect x="165.6021459227468" y="197.78617138835347" fill="#1FC7D4" width="1" height="17.213828611646534" rx="2"/></g></g><g class="recharts-layer recharts-bar-rectangle"><g><rect x="167.50343347639486" y="199.71817113481677" fill="#1FC7D4" width="1" height="15.281828865183229" rx="2"/></g></g><g class="recharts-layer recharts-bar-rectangle"><g><rect x="169.40472103004294" y="199.52850970212626" fill="#1FC7D4" width="1" height="15.471490297873743" rx="2"/></g></g><g class="recharts-layer recharts-bar-rectangle"><g><rect x="171.30600858369098" y="197.6486949413025" fill="#1FC7D4" width="1" height="17.351305058697506" rx="2"/></g></g><g class="recharts-layer recharts-bar-rectangle"><g><rect x="173.20729613733906" y="195.4955847599205" fill="#1FC7D4" width="1" height="19.50441524007951" rx="2"/></g></g><g class="recharts-layer recharts-bar-rectangle"><g><rect x="175.10858369098713" y="197.58358894093777" fill="#1FC7D4" width="1" height="17.416411059062227" rx="2"/></g></g><g class="recharts-layer recharts-bar-rectangle"><g><rect x="177.0098712446352" y="188.2254928814342" fill="#1FC7D4" width="1" height="26.774507118565793" rx="2"/></g></g><g class="recharts-layer recharts-bar-rectangle"><g><rect x="178.91115879828325" y="193.99380256673564" fill="#1FC7D4" width="1" height="21.00619743326436" rx="2"/></g></g><g class="recharts-layer recharts-bar-rectangle"><g><rect x="180.81244635193133" y="190.4644927197549" fill="#1FC7D4" width="1" height="24.5355072802451" rx="2"/></g></g><g class="recharts-layer recharts-bar-rectangle"><g><rect x="182.7137339055794" y="195.69935028499216" fill="#1FC7D4" width="1" height="19.300649715007836" rx="2"/></g></g><g class="recharts-layer recharts-bar-rectangle"><g><rect x="184.61502145922748" y="195.41542864429033" fill="#1FC7D4" width="1" height="19.58457135570967" rx="2"/></g></g><g class="recharts-layer recharts-bar-rectangle"><g><rect x="186.51630901287555" y="197.5354173176313" fill="#1FC7D4" width="1" height="17.4645826823687" rx="2"/></g></g><g class="recharts-layer recharts-bar-rectangle"><g><rect x="188.4175965665236" y="194.87103618504247" fill="#1FC7D4" width="1" height="20.12896381495753" rx="2"/></g></g><g class="recharts-layer recharts-bar-rectangle"><g><rect x="190.31888412017167" y="197.6224495350391" fill="#1FC7D4" width="1" height="17.377550464960905" rx="2"/></g></g><g class="recharts-layer recharts-bar-rectangle"><g><rect x="192.22017167381975" y="198.8103857102791" fill="#1FC7D4" width="1" height="16.189614289720907" rx="2"/></g></g><g class="recharts-layer recharts-bar-rectangle"><g><rect x="194.12145922746782" y="195.687498076744" fill="#1FC7D4" width="1" height="19.312501923256008" rx="2"/></g></g><g class="recharts-layer recharts-bar-rectangle"><g><rect x="196.02274678111587" y="196.40104873843467" fill="#1FC7D4" width="1" height="18.598951261565333" rx="2"/></g></g><g class="recharts-layer recharts-bar-rectangle"><g><rect x="197.92403433476395" y="198.26929670850043" fill="#1FC7D4" width="1" height="16.730703291499566" rx="2"/></g></g><g class="recharts-layer recharts-bar-rectangle"><g><rect x="199.82532188841202" y="196.98628489379675" fill="#1FC7D4" width="1" height="18.01371510620325" rx="2"/></g></g><g class="recharts-layer recharts-bar-rectangle"><g><rect x="201.7266094420601" y="198.52246252169323" fill="#1FC7D4" width="1" height="16.477537478306772" rx="2"/></g></g><g class="recharts-layer recharts-bar-rectangle"><g><rect x="203.62789699570817" y="197.81741807123365" fill="#1FC7D4" width="1" height="17.182581928766353" rx="2"/></g></g><g class="recharts-layer recharts-bar-rectangle"><g><rect x="205.52918454935622" y="195.2645157538129" fill="#1FC7D4" width="1" height="19.7354842461871" rx="2"/></g></g><g class="recharts-layer recharts-bar-rectangle"><g><rect x="207.4304721030043" y="185.7317063261864" fill="#1FC7D4" width="1" height="29.268293673813588" rx="2"/></g></g><g class="recharts-layer recharts-bar-rectangle"><g><rect x="209.33175965665237" y="192.36455831302447" fill="#1FC7D4" width="1" height="22.635441686975525" rx="2"/></g></g><g class="recharts-layer recharts-bar-rectangle"><g><rect x="211.23304721030044" y="197.29020860415946" fill="#1FC7D4" width="1" height="17.70979139584054" rx="2"/></g></g><g class="recharts-layer recharts-bar-rectangle"><g><rect x="213.13433476394852" y="196.99155624372767" fill="#1FC7D4" width="1" height="18.008443756272328" rx="2"/></g></g><g class="recharts-layer recharts-bar-rectangle"><g><rect x="215.03562231759656" y="195.32275992656128" fill="#1FC7D4" width="1" height="19.677240073438725" rx="2"/></g></g><g class="recharts-layer recharts-bar-rectangle"><g><rect x="216.93690987124464" y="189.23776523723598" fill="#1FC7D4" width="1" height="25.762234762764024" rx="2"/></g></g><g class="recharts-layer recharts-bar-rectangle"><g><rect x="218.8381974248927" y="188.75044490916406" fill="#1FC7D4" width="1" height="26.24955509083594" rx="2"/></g></g><g class="recharts-layer recharts-bar-rectangle"><g><rect x="220.7394849785408" y="189.47898225228317" fill="#1FC7D4" width="1" height="25.521017747716826" rx="2"/></g></g><g class="recharts-layer recharts-bar-rectangle"><g><rect x="222.64077253218883" y="185.29203529747625" fill="#1FC7D4" width="1" height="29.707964702523753" rx="2"/></g></g><g class="recharts-layer recharts-bar-rectangle"><g><rect x="224.5420600858369" y="187.210089668383" fill="#1FC7D4" width="1" height="27.789910331616994" rx="2"/></g></g><g class="recharts-layer recharts-bar-rectangle"><g><rect x="226.44334763948498" y="187.208575309418" fill="#1FC7D4" width="1" height="27.791424690582005" rx="2"/></g></g><g class="recharts-layer recharts-bar-rectangle"><g><rect x="228.34463519313306" y="191.84793201098907" fill="#1FC7D4" width="1" height="23.15206798901093" rx="2"/></g></g><g class="recharts-layer recharts-bar-rectangle"><g><rect x="230.24592274678113" y="181.18237782580084" fill="#1FC7D4" width="1" height="33.81762217419916" rx="2"/></g></g><g class="recharts-layer recharts-bar-rectangle"><g><rect x="232.14721030042918" y="178.42813103823158" fill="#1FC7D4" width="1" height="36.571868961768416" rx="2"/></g></g><g class="recharts-layer recharts-bar-rectangle"><g><rect x="234.04849785407725" y="172.7314978157731" fill="#1FC7D4" width="1" height="42.26850218422689" rx="2"/></g></g><g class="recharts-layer recharts-bar-rectangle"><g><rect x="235.94978540772533" y="173.85990629161228" fill="#1FC7D4" width="1" height="41.140093708387724" rx="2"/></g></g><g class="recharts-layer recharts-bar-rectangle"><g><rect x="237.8510729613734" y="181.78304674505642" fill="#1FC7D4" width="1" height="33.216953254943576" rx="2"/></g></g><g class="recharts-layer recharts-bar-rectangle"><g><rect x="239.75236051502145" y="191.683958318316" fill="#1FC7D4" width="1" height="23.316041681684" rx="2"/></g></g><g class="recharts-layer recharts-bar-rectangle"><g><rect x="241.65364806866953" y="190.69371780029454" fill="#1FC7D4" width="1" height="24.306282199705464" rx="2"/></g></g><g class="recharts-layer recharts-bar-rectangle"><g><rect x="243.5549356223176" y="187.1731653458371" fill="#1FC7D4" width="1" height="27.826834654162894" rx="2"/></g></g><g class="recharts-layer recharts-bar-rectangle"><g><rect x="245.45622317596568" y="184.86383789730266" fill="#1FC7D4" width="1" height="30.13616210269734" rx="2"/></g></g><g class="recharts-layer recharts-bar-rectangle"><g><rect x="247.35751072961375" y="186.43490440050172" fill="#1FC7D4" width="1" height="28.565095599498278" rx="2"/></g></g><g class="recharts-layer recharts-bar-rectangle"><g><rect x="249.2587982832618" y="189.07895740895492" fill="#1FC7D4" width="1" height="25.92104259104508" rx="2"/></g></g><g class="recharts-layer recharts-bar-rectangle"><g><rect x="251.16008583690987" y="188.19787004106112" fill="#1FC7D4" width="1" height="26.802129958938878" rx="2"/></g></g><g class="recharts-layer recharts-bar-rectangle"><g><rect x="253.06137339055795" y="190.44634308421024" fill="#1FC7D4" width="1" height="24.55365691578976" rx="2"/></g></g><g class="recharts-layer recharts-bar-rectangle"><g><rect x="254.96266094420602" y="194.30802410875555" fill="#1FC7D4" width="1" height="20.691975891244454" rx="2"/></g></g><g class="recharts-layer recharts-bar-rectangle"><g><rect x="256.8639484978541" y="188.12430071842928" fill="#1FC7D4" width="1" height="26.875699281570718" rx="2"/></g></g><g class="recharts-layer recharts-bar-rectangle"><g><rect x="258.76523605150214" y="161.4754664748837" fill="#1FC7D4" width="1" height="53.52453352511631" rx="2"/></g></g><g class="recharts-layer recharts-bar-rectangle"><g><rect x="260.66652360515025" y="182.28165963835403" fill="#1FC7D4" width="1" height="32.71834036164597" rx="2"/></g></g><g class="recharts-layer recharts-bar-rectangle"><g><rect x="262.5678111587983" y="188.39878015762616" fill="#1FC7D4" width="1" height="26.601219842373837" rx="2"/></g></g><g class="recharts-layer recharts-bar-rectangle"><g><rect x="264.46909871244634" y="187.93935004269642" fill="#1FC7D4" width="1" height="27.060649957303582" rx="2"/></g></g><g class="recharts-layer recharts-bar-rectangle"><g><rect x="266.37038626609444" y="197.87842856862264" fill="#1FC7D4" width="1" height="17.12157143137736" rx="2"/></g></g><g class="recharts-layer recharts-bar-rectangle"><g><rect x="268.2716738197425" y="196.28254456664862" fill="#1FC7D4" width="1" height="18.717455433351375" rx="2"/></g></g><g class="recharts-layer recharts-bar-rectangle"><g><rect x="270.17296137339054" y="189.3096415208501" fill="#1FC7D4" width="1" height="25.690358479149893" rx="2"/></g></g><g class="recharts-layer recharts-bar-rectangle"><g><rect x="272.07424892703864" y="195.2201778962227" fill="#1FC7D4" width="1" height="19.779822103777292" rx="2"/></g></g><g class="recharts-layer recharts-bar-rectangle"><g><rect x="273.9755364806867" y="191.51491123003424" fill="#1FC7D4" width="1" height="23.485088769965756" rx="2"/></g></g><g class="recharts-layer recharts-bar-rectangle"><g><rect x="275.8768240343348" y="188.69630605826694" fill="#1FC7D4" width="1" height="26.30369394173306" rx="2"/></g></g><g class="recharts-layer recharts-bar-rectangle"><g><rect x="277.77811158798283" y="193.529263352049" fill="#1FC7D4" width="1" height="21.470736647950986" rx="2"/></g></g><g class="recharts-layer recharts-bar-rectangle"><g><rect x="279.6793991416309" y="195.9848183326808" fill="#1FC7D4" width="1" height="19.01518166731921" rx="2"/></g></g><g class="recharts-layer recharts-bar-rectangle"><g><rect x="281.580686695279" y="196.49525604661946" fill="#1FC7D4" width="1" height="18.50474395338054" rx="2"/></g></g><g class="recharts-layer recharts-bar-rectangle"><g><rect x="283.48197424892703" y="181.5511948500146" fill="#1FC7D4" width="1" height="33.44880514998539" rx="2"/></g></g><g class="recharts-layer recharts-bar-rectangle"><g><rect x="285.38326180257513" y="186.217629053422" fill="#1FC7D4" width="1" height="28.782370946578" rx="2"/></g></g><g class="recharts-layer recharts-bar-rectangle"><g><rect x="287.2845493562232" y="191.83510434685252" fill="#1FC7D4" width="1" height="23.164895653147482" rx="2"/></g></g><g class="recharts-layer recharts-bar-rectangle"><g><rect x="289.1858369098712" y="193.74240359992766" fill="#1FC7D4" width="1" height="21.257596400072345" rx="2"/></g></g><g class="recharts-layer recharts-bar-rectangle"><g><rect x="291.08712446351933" y="187.64918187181482" fill="#1FC7D4" width="1" height="27.350818128185182" rx="2"/></g></g><g class="recharts-layer recharts-bar-rectangle"><g><rect x="292.9884120171674" y="199.36775381376376" fill="#1FC7D4" width="1" height="15.632246186236245" rx="2"/></g></g><g class="recharts-layer recharts-bar-rectangle"><g><rect x="294.8896995708155" y="193.44097124686303" fill="#1FC7D4" width="1" height="21.55902875313697" rx="2"/></g></g><g class="recharts-layer recharts-bar-rectangle"><g><rect x="296.7909871244635" y="196.23709581230545" fill="#1FC7D4" width="1" height="18.762904187694545" rx="2"/></g></g><g class="recharts-layer recharts-bar-rectangle"><g><rect x="298.6922746781116" y="197.45806923152796" fill="#1FC7D4" width="1" height="17.541930768472042" rx="2"/></g></g><g class="recharts-layer recharts-bar-rectangle"><g><rect x="300.5935622317597" y="193.4271285543923" fill="#1FC7D4" width="1" height="21.57287144560769" rx="2"/></g></g><g class="recharts-layer recharts-bar-rectangle"><g><rect x="302.4948497854077" y="195.49828921694828" fill="#1FC7D4" width="1" height="19.50171078305172" rx="2"/></g></g><g class="recharts-layer recharts-bar-rectangle"><g><rect x="304.39613733905577" y="194.8340257697083" fill="#1FC7D4" width="1" height="20.16597423029171" rx="2"/></g></g><g class="recharts-layer recharts-bar-rectangle"><g><rect x="306.2974248927039" y="195.34447520165165" fill="#1FC7D4" width="1" height="19.655524798348353" rx="2"/></g></g><g class="recharts-layer recharts-bar-rectangle"><g><rect x="308.1987124463519" y="197.28627744075953" fill="#1FC7D4" width="1" height="17.713722559240466" rx="2"/></g></g><g class="recharts-layer recharts-bar-rectangle"><g><rect x="310.1" y="193.78407775229329" fill="#1FC7D4" width="1" height="21.215922247706715" rx="2"/></g></g><g class="recharts-layer recharts-bar-rectangle"><g><rect x="312.00128755364807" y="193.2570088185087" fill="#1FC7D4" width="1" height="21.742991181491305" rx="2"/></g></g><g class="recharts-layer recharts-bar-rectangle"><g><rect x="313.9025751072961" y="191.285618208381" fill="#1FC7D4" width="1" height="23.71438179161899" rx="2"/></g></g><g class="recharts-layer recharts-bar-rectangle"><g><rect x="315.8038626609442" y="188.14972548714175" fill="#1FC7D4" width="1" height="26.85027451285825" rx="2"/></g></g><g class="recharts-layer recharts-bar-rectangle"><g><rect x="317.70515021459227" y="192.4158570819265" fill="#1FC7D4" width="1" height="22.584142918073496" rx="2"/></g></g><g class="recharts-layer recharts-bar-rectangle"><g><rect x="319.60643776824037" y="193.36091920353613" fill="#1FC7D4" width="1" height="21.639080796463873" rx="2"/></g></g><g class="recharts-layer recharts-bar-rectangle"><g><rect x="321.5077253218884" y="190.01581395736852" fill="#1FC7D4" width="1" height="24.984186042631478" rx="2"/></g></g><g class="recharts-layer recharts-bar-rectangle"><g><rect x="323.40901287553646" y="188.79604540963544" fill="#1FC7D4" width="1" height="26.20395459036456" rx="2"/></g></g><g class="recharts-layer recharts-bar-rectangle"><g><rect x="325.31030042918457" y="182.11385808868968" fill="#1FC7D4" width="1" height="32.88614191131032" rx="2"/></g></g><g class="recharts-layer recharts-bar-rectangle"><g><rect x="327.2115879828326" y="174.38884747629805" fill="#1FC7D4" width="1" height="40.611152523701946" rx="2"/></g></g><g class="recharts-layer recharts-bar-rectangle"><g><rect x="329.1128755364807" y="182.89964005582445" fill="#1FC7D4" width="1" height="32.10035994417555" rx="2"/></g></g><g class="recharts-layer recharts-bar-rectangle"><g><rect x="331.01416309012876" y="184.10273860348755" fill="#1FC7D4" width="1" height="30.897261396512448" rx="2"/></g></g><g class="recharts-layer recharts-bar-rectangle"><g><rect x="332.9154506437768" y="191.06306580536196" fill="#1FC7D4" width="1" height="23.93693419463804" rx="2"/></g></g><g class="recharts-layer recharts-bar-rectangle"><g><rect x="334.8167381974249" y="188.38714498138165" fill="#1FC7D4" width="1" height="26.612855018618347" rx="2"/></g></g><g class="recharts-layer recharts-bar-rectangle"><g><rect x="336.71802575107296" y="187.43867412162825" fill="#1FC7D4" width="1" height="27.561325878371747" rx="2"/></g></g><g class="recharts-layer recharts-bar-rectangle"><g><rect x="338.61931330472106" y="187.7936935155648" fill="#1FC7D4" width="1" height="27.206306484435203" rx="2"/></g></g><g class="recharts-layer recharts-bar-rectangle"><g><rect x="340.5206008583691" y="181.78310151505514" fill="#1FC7D4" width="1" height="33.21689848494486" rx="2"/></g></g><g class="recharts-layer recharts-bar-rectangle"><g><rect x="342.42188841201715" y="183.08503497364092" fill="#1FC7D4" width="1" height="31.914965026359084" rx="2"/></g></g><g class="recharts-layer recharts-bar-rectangle"><g><rect x="344.32317596566526" y="183.15117123653243" fill="#1FC7D4" width="1" height="31.848828763467566" rx="2"/></g></g><g class="recharts-layer recharts-bar-rectangle"><g><rect x="346.2244635193133" y="192.53212155285505" fill="#1FC7D4" width="1" height="22.467878447144955" rx="2"/></g></g><g class="recharts-layer recharts-bar-rectangle"><g><rect x="348.12575107296135" y="190.0648240738157" fill="#1FC7D4" width="1" height="24.935175926184286" rx="2"/></g></g><g class="recharts-layer recharts-bar-rectangle"><g><rect x="350.02703862660945" y="185.18691708123694" fill="#1FC7D4" width="1" height="29.813082918763058" rx="2"/></g></g><g class="recharts-layer recharts-bar-rectangle"><g><rect x="351.9283261802575" y="178.78572167288644" fill="#1FC7D4" width="1" height="36.21427832711356" rx="2"/></g></g><g class="recharts-layer recharts-bar-rectangle"><g><rect x="353.8296137339056" y="174.94218742623443" fill="#1FC7D4" width="1" height="40.057812573765574" rx="2"/></g></g><g class="recharts-layer recharts-bar-rectangle"><g><rect x="355.73090128755365" y="167.0732720331674" fill="#1FC7D4" width="1" height="47.9267279668326" rx="2"/></g></g><g class="recharts-layer recharts-bar-rectangle"><g><rect x="357.6321888412017" y="164.90677751344185" fill="#1FC7D4" width="1" height="50.09322248655815" rx="2"/></g></g><g class="recharts-layer recharts-bar-rectangle"><g><rect x="359.5334763948498" y="163.07222814285822" fill="#1FC7D4" width="1" height="51.92777185714178" rx="2"/></g></g><g class="recharts-layer recharts-bar-rectangle"><g><rect x="361.43476394849785" y="169.24547868545588" fill="#1FC7D4" width="1" height="45.75452131454412" rx="2"/></g></g><g class="recharts-layer recharts-bar-rectangle"><g><rect x="363.33605150214595" y="164.83994185718706" fill="#1FC7D4" width="1" height="50.16005814281294" rx="2"/></g></g><g class="recharts-layer recharts-bar-rectangle"><g><rect x="365.237339055794" y="161.8987472742231" fill="#1FC7D4" width="1" height="53.1012527257769" rx="2"/></g></g><g class="recharts-layer recharts-bar-rectangle"><g><rect x="367.13862660944204" y="159.58498456876293" fill="#1FC7D4" width="1" height="55.415015431237066" rx="2"/></g></g><g class="recharts-layer recharts-bar-rectangle"><g><rect x="369.03991416309015" y="153.8797433720449" fill="#1FC7D4" width="1" height="61.12025662795509" rx="2"/></g></g><g class="recharts-layer recharts-bar-rectangle"><g><rect x="370.9412017167382" y="160.24482316263558" fill="#1FC7D4" width="1" height="54.75517683736442" rx="2"/></g></g><g class="recharts-layer recharts-bar-rectangle"><g><rect x="372.8424892703863" y="155.32520833614666" fill="#1FC7D4" width="1" height="59.67479166385334" rx="2"/></g></g><g class="recharts-layer recharts-bar-rectangle"><g><rect x="374.74377682403434" y="151.35364190852124" fill="#1FC7D4" width="1" height="63.64635809147876" rx="2"/></g></g><g class="recharts-layer recharts-bar-rectangle"><g><rect x="376.6450643776824" y="157.45897697139608" fill="#1FC7D4" width="1" height="57.54102302860392" rx="2"/></g></g><g class="recharts-layer recharts-bar-rectangle"><g><rect x="378.5463519313305" y="161.89941512958396" fill="#1FC7D4" width="1" height="53.10058487041604" rx="2"/></g></g><g class="recharts-layer recharts-bar-rectangle"><g><rect x="380.44763948497854" y="143.20187794338153" fill="#1FC7D4" width="1" height="71.79812205661847" rx="2"/></g></g><g class="recharts-layer recharts-bar-rectangle"><g><rect x="382.34892703862664" y="159.56228140998203" fill="#1FC7D4" width="1" height="55.437718590017965" rx="2"/></g></g><g class="recharts-layer recharts-bar-rectangle"><g><rect x="384.2502145922747" y="173.00669475686146" fill="#1FC7D4" width="1" height="41.993305243138536" rx="2"/></g></g><g class="recharts-layer recharts-bar-rectangle"><g><rect x="386.15150214592273" y="161.50790882876947" fill="#1FC7D4" width="1" height="53.49209117123053" rx="2"/></g></g><g class="recharts-layer recharts-bar-rectangle"><g><rect x="388.05278969957084" y="158.57478492412324" fill="#1FC7D4" width="1" height="56.425215075876764" rx="2"/></g></g><g class="recharts-layer recharts-bar-rectangle"><g><rect x="389.9540772532189" y="154.3585573707735" fill="#1FC7D4" width="1" height="60.6414426292265" rx="2"/></g></g><g class="recharts-layer recharts-bar-rectangle"><g><rect x="391.85536480686693" y="147.6573090965012" fill="#1FC7D4" width="1" height="67.3426909034988" rx="2"/></g></g><g class="recharts-layer recharts-bar-rectangle"><g><rect x="393.75665236051503" y="161.28961515861815" fill="#1FC7D4" width="1" height="53.71038484138185" rx="2"/></g></g><g class="recharts-layer recharts-bar-rectangle"><g><rect x="395.6579399141631" y="143.94812117012555" fill="#1FC7D4" width="1" height="71.05187882987445" rx="2"/></g></g><g class="recharts-layer recharts-bar-rectangle"><g><rect x="397.5592274678112" y="156.07608600530006" fill="#1FC7D4" width="1" height="58.923913994699944" rx="2"/></g></g><g class="recharts-layer recharts-bar-rectangle"><g><rect x="399.46051502145923" y="148.4329335898595" fill="#1FC7D4" width="1" height="66.56706641014051" rx="2"/></g></g><g class="recharts-layer recharts-bar-rectangle"><g><rect x="401.3618025751073" y="156.30793308030556" fill="#1FC7D4" width="1" height="58.69206691969444" rx="2"/></g></g><g class="recharts-layer recharts-bar-rectangle"><g><rect x="403.2630901287554" y="161.62133928966594" fill="#1FC7D4" width="1" height="53.37866071033406" rx="2"/></g></g><g class="recharts-layer recharts-bar-rectangle"><g><rect x="405.1643776824034" y="157.26154123935925" fill="#1FC7D4" width="1" height="57.738458760640754" rx="2"/></g></g><g class="recharts-layer recharts-bar-rectangle"><g><rect x="407.06566523605153" y="155.33572582646966" fill="#1FC7D4" width="1" height="59.664274173530345" rx="2"/></g></g><g class="recharts-layer recharts-bar-rectangle"><g><rect x="408.9669527896996" y="146.1189882298551" fill="#1FC7D4" width="1" height="68.88101177014491" rx="2"/></g></g><g class="recharts-layer recharts-bar-rectangle"><g><rect x="410.8682403433476" y="143.85547782916177" fill="#1FC7D4" width="1" height="71.14452217083823" rx="2"/></g></g><g class="recharts-layer recharts-bar-rectangle"><g><rect x="412.7695278969957" y="167.12402908621715" fill="#1FC7D4" width="1" height="47.87597091378285" rx="2"/></g></g><g class="recharts-layer recharts-bar-rectangle"><g><rect x="414.6708154506438" y="163.7400845630242" fill="#1FC7D4" width="1" height="51.2599154369758" rx="2"/></g></g><g class="recharts-layer recharts-bar-rectangle"><g><rect x="416.5721030042919" y="152.7361684859449" fill="#1FC7D4" width="1" height="62.26383151405511" rx="2"/></g></g><g class="recharts-layer recharts-bar-rectangle"><g><rect x="418.4733905579399" y="146.26012544404145" fill="#1FC7D4" width="1" height="68.73987455595855" rx="2"/></g></g><g class="recharts-layer recharts-bar-rectangle"><g><rect x="420.37467811158797" y="141.09758296499018" fill="#1FC7D4" width="1" height="73.90241703500982" rx="2"/></g></g><g class="recharts-layer recharts-bar-rectangle"><g><rect x="422.2759656652361" y="142.06510838177743" fill="#1FC7D4" width="1" height="72.93489161822257" rx="2"/></g></g><g class="recharts-layer recharts-bar-rectangle"><g><rect x="424.1772532188841" y="159.31288663563782" fill="#1FC7D4" width="1" height="55.687113364362176" rx="2"/></g></g><g class="recharts-layer recharts-bar-rectangle"><g><rect x="426.0785407725322" y="149.06563461280743" fill="#1FC7D4" width="1" height="65.93436538719257" rx="2"/></g></g><g class="recharts-layer recharts-bar-rectangle"><g><rect x="427.97982832618027" y="169.03014758278636" fill="#1FC7D4" width="1" height="45.969852417213644" rx="2"/></g></g><g class="recharts-layer recharts-bar-rectangle"><g><rect x="429.8811158798283" y="158.87339461906598" fill="#1FC7D4" width="1" height="56.12660538093402" rx="2"/></g></g><g class="recharts-layer recharts-bar-rectangle"><g><rect x="431.7824034334764" y="167.84301636627129" fill="#1FC7D4" width="1" height="47.156983633728714" rx="2"/></g></g><g class="recharts-layer recharts-bar-rectangle"><g><rect x="433.68369098712446" y="169.00434460082775" fill="#1FC7D4" width="1" height="45.99565539917225" rx="2"/></g></g><g class="recharts-layer recharts-bar-rectangle"><g><rect x="435.5849785407725" y="169.47811884347152" fill="#1FC7D4" width="1" height="45.52188115652848" rx="2"/></g></g><g class="recharts-layer recharts-bar-rectangle"><g><rect x="437.4862660944206" y="168.07015517162247" fill="#1FC7D4" width="1" height="46.929844828377526" rx="2"/></g></g><g class="recharts-layer recharts-bar-rectangle"><g><rect x="439.38755364806866" y="184.62088888290305" fill="#1FC7D4" width="1" height="30.379111117096954" rx="2"/></g></g><g class="recharts-layer recharts-bar-rectangle"><g><rect x="441.28884120171676" y="197.01473333217982" fill="#1FC7D4" width="1" height="17.985266667820184" rx="2"/></g></g></g></g></g></svg>